<svg width="147" height="38" viewBox="0 0 147 38" fill="none" xmlns="http://www.w3.org/2000/svg">
<path d="M0.474609 15V11.9678H1.88086V4.04004H0.474609V1.00781H6.85547C9.45117 1.00781 11.4258 1.60547 12.7793 2.80078C14.1328 3.99023 14.8096 5.73047 14.8096 8.02148C14.8096 10.3066 14.1357 12.041 12.7881 13.2246C11.4404 14.4082 9.45996 15 6.84668 15H0.474609ZM6.45117 12.0557H6.93457C7.96582 12.0557 8.7041 11.7451 9.14941 11.124C9.59473 10.4971 9.81738 9.4541 9.81738 7.99512C9.81738 6.54199 9.59473 5.50488 9.14941 4.88379C8.7041 4.2627 7.96582 3.95215 6.93457 3.95215H6.45117V12.0557ZM16.0137 15V11.9678H17.4199V4.04004H16.0137V1.00781H28.459V6.57129H25.5586L25.251 3.99609H21.8848V6.36914H24.2578V9.35742H21.8848V12.0117H25.251L25.5586 9.0498H28.459V15H16.0137ZM34.3916 15L30.9287 4.04004H29.6543V1.00781H37.5557V4.04004H36.1055L38.3467 11.8887L40.5879 4.04004H39.1377V1.00781H44.9824V4.04004H43.708L40.2539 15H34.3916ZM45.668 15V11.9678H47.0742V4.04004H45.668V1.00781H58.1133V6.57129H55.2129L54.9053 3.99609H51.5391V6.36914H53.9121V9.35742H51.5391V12.0117H54.9053L55.2129 9.0498H58.1133V15H45.668ZM59.748 15V11.9678H61.1543V4.04004H59.748V1.00781H67.6582V4.04004H65.7246V12.0117H68.5898L68.9414 8.7334H71.8418V15H59.748ZM79.8311 15.2549C78.3838 15.2549 77.1328 14.9648 76.0781 14.3848C75.0293 13.7988 74.2207 12.9639 73.6523 11.8799C73.084 10.7959 72.7998 9.50977 72.7998 8.02148C72.7998 6.52148 73.084 5.22949 73.6523 4.14551C74.2207 3.05566 75.0293 2.21777 76.0781 1.63184C77.1328 1.0459 78.3838 0.75293 79.8311 0.75293C81.2842 0.75293 82.5352 1.0459 83.584 1.63184C84.6328 2.21777 85.4414 3.05566 86.0098 4.14551C86.5781 5.22949 86.8623 6.52148 86.8623 8.02148C86.8623 9.50977 86.5781 10.7959 86.0098 11.8799C85.4414 12.9639 84.6328 13.7988 83.584 14.3848C82.5352 14.9648 81.2842 15.2549 79.8311 15.2549ZM79.8311 12.2227C80.4873 12.2227 80.9912 11.8652 81.3428 11.1504C81.6943 10.4355 81.8701 9.38379 81.8701 7.99512C81.8701 6.60645 81.6943 5.55469 81.3428 4.83984C80.9912 4.125 80.4873 3.76758 79.8311 3.76758C79.1748 3.76758 78.6709 4.125 78.3193 4.83984C77.9678 5.55469 77.792 6.60645 77.792 7.99512C77.792 9.38379 77.9678 10.4355 78.3193 11.1504C78.6709 11.8652 79.1748 12.2227 79.8311 12.2227ZM88.0664 15V11.9678H89.4727V4.04004H88.0664V1.00781H95.6162C97.5264 1.00781 98.9678 1.37988 99.9404 2.12402C100.913 2.8623 101.399 3.96973 101.399 5.44629C101.399 6.87598 100.916 7.95996 99.9492 8.69824C98.9824 9.43066 97.5674 9.79688 95.7041 9.79688H93.9375V11.9678H96.4863V15H88.0664ZM95.1064 3.95215H93.9375V7.11621H95.0186C95.6162 7.11621 96.0645 6.99023 96.3633 6.73828C96.6621 6.48633 96.8115 6.08496 96.8115 5.53418C96.8115 4.97754 96.665 4.57617 96.3721 4.33008C96.085 4.07812 95.6631 3.95215 95.1064 3.95215ZM102.357 15V11.9678H103.764V4.04004H102.357V1.00781H114.803V6.57129H111.902L111.595 3.99609H108.229V6.36914H110.602V9.35742H108.229V12.0117H111.595L111.902 9.0498H114.803V15H102.357ZM116.438 15V11.9678H117.844V4.04004H116.438V1.00781H124.515C126.261 1.00781 127.603 1.33594 128.54 1.99219C129.478 2.64258 129.946 3.59766 129.946 4.85742C129.946 5.67188 129.744 6.34863 129.34 6.8877C128.936 7.42676 128.388 7.81055 127.696 8.03906C128.247 8.2207 128.654 8.50488 128.918 8.8916C129.188 9.27832 129.328 9.75 129.34 10.3066L129.357 11.0361C129.369 11.3467 129.437 11.5811 129.56 11.7393C129.688 11.8916 129.905 11.9678 130.21 11.9678H131.142V15H128.083C126.964 15 126.135 14.7422 125.596 14.2266C125.062 13.7051 124.79 12.9434 124.778 11.9414L124.761 10.7725C124.743 9.83496 124.31 9.36621 123.46 9.36621H122.309V11.9678H123.495V15H116.438ZM123.671 3.95215H122.309V6.92285H123.671C124.796 6.92285 125.358 6.42773 125.358 5.4375C125.358 4.44727 124.796 3.95215 123.671 3.95215ZM139.228 15.2549C138.114 15.2549 137.194 15.1084 136.468 14.8154C135.741 14.5166 135.161 14.1182 134.728 13.6201L134.279 15H131.862V10.2891H135.141C135.252 10.9688 135.592 11.5283 136.16 11.9678C136.729 12.4014 137.446 12.6182 138.313 12.6182C138.788 12.6182 139.154 12.5244 139.412 12.3369C139.67 12.1436 139.799 11.8799 139.799 11.5459C139.799 11.1826 139.655 10.9072 139.368 10.7197C139.081 10.5322 138.7 10.3857 138.226 10.2803C137.751 10.1748 137.229 10.0723 136.661 9.97266C136.093 9.87305 135.524 9.73535 134.956 9.55957C134.388 9.38379 133.866 9.12598 133.392 8.78613C132.917 8.44629 132.536 7.98633 132.249 7.40625C131.962 6.82031 131.818 6.07031 131.818 5.15625C131.818 4.27148 132.029 3.49805 132.451 2.83594C132.879 2.17383 133.491 1.6582 134.288 1.28906C135.085 0.919922 136.04 0.735352 137.153 0.735352C138.149 0.735352 138.981 0.878906 139.649 1.16602C140.317 1.45313 140.862 1.86035 141.284 2.3877L141.732 1.00781H144.149V5.54297H140.801C140.631 4.8457 140.291 4.30957 139.781 3.93457C139.277 3.55957 138.691 3.37207 138.023 3.37207C137.549 3.37207 137.171 3.46289 136.89 3.64453C136.608 3.82031 136.468 4.08105 136.468 4.42676C136.468 4.74902 136.611 4.99512 136.898 5.16504C137.186 5.33496 137.566 5.47266 138.041 5.57812C138.516 5.68359 139.037 5.79199 139.605 5.90332C140.174 6.01465 140.742 6.16699 141.311 6.36035C141.879 6.55371 142.4 6.82617 142.875 7.17773C143.35 7.52344 143.73 7.98633 144.018 8.56641C144.305 9.14648 144.448 9.88184 144.448 10.7725C144.448 12.167 143.985 13.2627 143.06 14.0596C142.134 14.8564 140.856 15.2549 139.228 15.2549ZM8.41113 37.2549C6.82324 37.2549 5.44629 36.9502 4.28027 36.3408C3.12012 35.7314 2.22363 34.8613 1.59082 33.7305C0.958008 32.5996 0.641602 31.2549 0.641602 29.6963C0.641602 28.5771 0.805664 27.5869 1.13379 26.7256C1.46777 25.8643 1.9248 25.1377 2.50488 24.5459C3.09082 23.9541 3.76172 23.5088 4.51758 23.21C5.27344 22.9053 6.07617 22.7529 6.92578 22.7529C7.81641 22.7529 8.58691 22.8936 9.2373 23.1748C9.8877 23.4561 10.4238 23.8662 10.8457 24.4053L11.2939 23.0078H13.7109V28.8262H10.5029C10.4561 27.7012 10.2334 26.9248 9.83496 26.4971C9.44238 26.0693 8.92676 25.8555 8.28809 25.8555C7.81934 25.8555 7.37988 25.9873 6.96973 26.251C6.56543 26.5146 6.2373 26.9189 5.98535 27.4639C5.73926 28.0088 5.61621 28.7061 5.61621 29.5557C5.61621 30.8096 5.94141 31.7705 6.5918 32.4385C7.24805 33.1006 8.16797 33.4316 9.35156 33.4316C10.0488 33.4316 10.7314 33.3145 11.3994 33.0801C12.0674 32.8457 12.6885 32.4854 13.2627 31.999L13.5 32.1045V35.8135C12.8203 36.3115 12.0176 36.6777 11.0918 36.9121C10.1719 37.1406 9.27832 37.2549 8.41113 37.2549ZM22.0518 37.2549C20.6045 37.2549 19.3535 36.9648 18.2988 36.3848C17.25 35.7988 16.4414 34.9639 15.873 33.8799C15.3047 32.7959 15.0205 31.5098 15.0205 30.0215C15.0205 28.5215 15.3047 27.2295 15.873 26.1455C16.4414 25.0557 17.25 24.2178 18.2988 23.6318C19.3535 23.0459 20.6045 22.7529 22.0518 22.7529C23.5049 22.7529 24.7559 23.0459 25.8047 23.6318C26.8535 24.2178 27.6621 25.0557 28.2305 26.1455C28.7988 27.2295 29.083 28.5215 29.083 30.0215C29.083 31.5098 28.7988 32.7959 28.2305 33.8799C27.6621 34.9639 26.8535 35.7988 25.8047 36.3848C24.7559 36.9648 23.5049 37.2549 22.0518 37.2549ZM22.0518 34.2227C22.708 34.2227 23.2119 33.8652 23.5635 33.1504C23.915 32.4355 24.0908 31.3838 24.0908 29.9951C24.0908 28.6064 23.915 27.5547 23.5635 26.8398C23.2119 26.125 22.708 25.7676 22.0518 25.7676C21.3955 25.7676 20.8916 26.125 20.54 26.8398C20.1885 27.5547 20.0127 28.6064 20.0127 29.9951C20.0127 31.3838 20.1885 32.4355 20.54 33.1504C20.8916 33.8652 21.3955 34.2227 22.0518 34.2227ZM39.3662 37.0088L34.5586 29.002V33.9678H35.9648V37H30.2871V33.9678H31.6934V26.04H30.2871V23.0078H36.5713L41.3965 31.0146V26.04H39.9902V23.0078H45.668V26.04H44.2617V37L39.3662 37.0088ZM46.793 37V33.9678H48.1992V26.04H46.793V23.0078H59.0625V28.8262H56.1621L55.8545 25.9961H52.6641V28.3691H54.9492V31.3574H52.6641V33.9678H55.2129V37H46.793ZM59.9414 37V33.9678H61.3477V26.04H59.9414V23.0078H72.3867V28.5713H69.4863L69.1787 25.9961H65.8125V28.3691H68.1855V31.3574H65.8125V34.0117H69.1787L69.4863 31.0498H72.3867V37H59.9414ZM74.0215 37V33.9678H75.4277V26.04H74.0215V23.0078H82.0986C83.8447 23.0078 85.1865 23.3359 86.124 23.9922C87.0615 24.6426 87.5303 25.5977 87.5303 26.8574C87.5303 27.6719 87.3281 28.3486 86.9238 28.8877C86.5195 29.4268 85.9717 29.8105 85.2803 30.0391C85.8311 30.2207 86.2383 30.5049 86.502 30.8916C86.7715 31.2783 86.9121 31.75 86.9238 32.3066L86.9414 33.0361C86.9531 33.3467 87.0205 33.5811 87.1436 33.7393C87.2725 33.8916 87.4893 33.9678 87.7939 33.9678H88.7256V37H85.667C84.5479 37 83.7188 36.7422 83.1797 36.2266C82.6465 35.7051 82.374 34.9434 82.3623 33.9414L82.3447 32.7725C82.3271 31.835 81.8936 31.3662 81.0439 31.3662H79.8926V33.9678H81.0791V37H74.0215ZM81.2549 25.9521H79.8926V28.9229H81.2549C82.3799 28.9229 82.9424 28.4277 82.9424 27.4375C82.9424 26.4473 82.3799 25.9521 81.2549 25.9521ZM89.4199 37V33.9678H90.8262V26.04H89.4199V23.0078H101.865V28.5713H98.9648L98.6572 25.9961H95.291V28.3691H97.6641V31.3574H95.291V34.0117H98.6572L98.9648 31.0498H101.865V37H89.4199ZM112.579 37.0088L107.771 29.002V33.9678H109.178V37H103.5V33.9678H104.906V26.04H103.5V23.0078H109.784L114.609 31.0146V26.04H113.203V23.0078H118.881V26.04H117.475V37L112.579 37.0088ZM127.767 37.2549C126.179 37.2549 124.802 36.9502 123.636 36.3408C122.476 35.7314 121.579 34.8613 120.946 33.7305C120.313 32.5996 119.997 31.2549 119.997 29.6963C119.997 28.5771 120.161 27.5869 120.489 26.7256C120.823 25.8643 121.28 25.1377 121.86 24.5459C122.446 23.9541 123.117 23.5088 123.873 23.21C124.629 22.9053 125.432 22.7529 126.281 22.7529C127.172 22.7529 127.942 22.8936 128.593 23.1748C129.243 23.4561 129.779 23.8662 130.201 24.4053L130.649 23.0078H133.066V28.8262H129.858C129.812 27.7012 129.589 26.9248 129.19 26.4971C128.798 26.0693 128.282 25.8555 127.644 25.8555C127.175 25.8555 126.735 25.9873 126.325 26.251C125.921 26.5146 125.593 26.9189 125.341 27.4639C125.095 28.0088 124.972 28.7061 124.972 29.5557C124.972 30.8096 125.297 31.7705 125.947 32.4385C126.604 33.1006 127.523 33.4316 128.707 33.4316C129.404 33.4316 130.087 33.3145 130.755 33.0801C131.423 32.8457 132.044 32.4854 132.618 31.999L132.855 32.1045V35.8135C132.176 36.3115 131.373 36.6777 130.447 36.9121C129.527 37.1406 128.634 37.2549 127.767 37.2549ZM134.438 37V33.9678H135.844V26.04H134.438V23.0078H146.883V28.5713H143.982L143.675 25.9961H140.309V28.3691H142.682V31.3574H140.309V34.0117H143.675L143.982 31.0498H146.883V37H134.438Z" fill="#2B2A3C"/>
</svg>
