<svg xmlns="http://www.w3.org/2000/svg" xmlns:xlink="http://www.w3.org/1999/xlink" viewBox="0 0 189.96 175.79"><defs><style>.cls-1{fill:none;}.cls-2{isolation:isolate;}.cls-3{fill:#fbc50b;}.cls-4{fill:#d65349;}.cls-5{fill:#451711;}.cls-6{clip-path:url(#clip-path);}.cls-7{fill:#fff9e7;}.cls-8{fill:#3f85af;}.cls-9{fill:#4da4d7;}.cls-10{fill:#1f455b;}.cls-11{clip-path:url(#clip-path-2);}.cls-12,.cls-23{fill:#bbbdbf;}.cls-12,.cls-22{opacity:0.84;mix-blend-mode:multiply;}.cls-13{fill:#efeeed;}.cls-14{fill:#e96438;}.cls-15{fill:#b89713;}.cls-16{fill:#b0191a;}.cls-17{fill:#c66f25;}.cls-18{fill:#d98735;}.cls-19{fill:#e58e37;}.cls-20{clip-path:url(#clip-path-3);}.cls-21{fill:#fcce7a;}</style><clipPath id="clip-path"><ellipse id="SVGID" class="cls-1" cx="44.38" cy="76.5" rx="14.92" ry="18.06" transform="translate(-10.02 6.77) rotate(-7.84)"/></clipPath><clipPath id="clip-path-2"><ellipse id="SVGID-2" data-name="SVGID" class="cls-1" cx="91.7" cy="57.23" rx="16.51" ry="17.86" transform="translate(-15.98 47.8) rotate(-26.96)"/></clipPath><clipPath id="clip-path-3"><circle id="SVGID-3" data-name="SVGID" class="cls-1" cx="137.3" cy="130.85" r="23.31"/></clipPath></defs><g class="cls-2"><g id="Layer_1" data-name="Layer 1"><circle class="cls-3" cx="86.13" cy="84.39" r="67.09" transform="translate(-34.45 85.62) rotate(-45)"/><path class="cls-4" d="M39.71,99.64c1,2.67-1.53,6.12-5.7,7.69s-8.35.69-9.36-2,1.53-6.12,5.69-7.7S38.7,97,39.71,99.64Z"/><path class="cls-5" d="M35.18,90.32a16.56,16.56,0,0,1-7.24-11.16,22.19,22.19,0,0,1-.12-8.1,21.18,21.18,0,0,1,3.06-7.83c3.09-4.64,7.93-7.1,12.19-6.79a13.6,13.6,0,0,1,6,1.77,14.7,14.7,0,0,1,4.53,4.46l-.16.24A14,14,0,0,0,43,58.74,13.3,13.3,0,0,0,32.67,65,19.73,19.73,0,0,0,29.8,78.54a20.23,20.23,0,0,0,5.54,11.54Z"/><g class="cls-6"><ellipse class="cls-7" cx="44.38" cy="76.5" rx="14.92" ry="18.06" transform="translate(-10.02 6.77) rotate(-7.84)"/><ellipse class="cls-8" cx="49.05" cy="74.96" rx="11.69" ry="14.83" transform="translate(-1.71 1.15) rotate(-1.32)"/><path class="cls-9" d="M39.23,78.43c-.28-1.09,2-3.08,2.71-1.69S48.4,89.55,54,81.9s-.1-11.8.58-13,3-3.19,3.3-2,4.28,13-2.1,18.58S41.67,87.81,39.23,78.43Z"/><path class="cls-10" d="M53.91,70.68c1.89,3.43,1.25,8.12-1.44,10.49s-6.39,1.49-8.28-1.94-1.25-8.12,1.43-10.48S52,67.25,53.91,70.68Z"/><path class="cls-7" d="M36.24,76c-.84,3.71-.19,4.81,1,4.83s7.36-4.64,6.21-6.12S37,72.59,36.24,76Z"/></g><path class="cls-5" d="M108.24,62.2a15.87,15.87,0,0,0-.19-13.48,19.53,19.53,0,0,0-4.74-6.46,20.41,20.41,0,0,0-7.43-4.2c-5.56-1.66-11.38-.49-15,2.51a16.18,16.18,0,0,0-4.3,5.25,15,15,0,0,0-1.39,6.44l.29.08a16,16,0,0,1,6.88-10,15.55,15.55,0,0,1,13-1.72A18.27,18.27,0,0,1,106,49.44,18.68,18.68,0,0,1,108,62.11Z"/><g class="cls-11"><ellipse class="cls-7" cx="91.7" cy="57.23" rx="16.51" ry="17.86" transform="translate(-15.98 47.8) rotate(-26.96)"/><path class="cls-8" d="M102.42,46.15c6,4.92,7.6,14.06,3.59,20.43S93.89,74.11,87.9,69.2s-7.6-14.06-3.59-20.42S96.43,41.24,102.42,46.15Z"/><path class="cls-9" d="M86.07,64.66c-.64-.91,1.12-3.65,2.28-2.61s10.74,9.57,14.09.27-3.82-11-3.49-12.4,2.1-4.13,2.78-3.18,8.55,10.58,3.68,18.23S91.56,72.54,86.07,64.66Z"/><path class="cls-10" d="M98.85,51.82a8.18,8.18,0,0,1,1.83,10.38,6,6,0,0,1-9.21,1.34,8.18,8.18,0,0,1-1.83-10.39A6,6,0,0,1,98.85,51.82Z"/><path class="cls-7" d="M80.28,54.12c-2,3.27-1.61,4.5-.38,4.86s9.2-2.19,8.4-3.93S82.11,51.09,80.28,54.12Z"/></g><path class="cls-12" d="M93.59,133.34A67.09,67.09,0,0,1,19.06,85.73,67.09,67.09,0,1,0,152.45,74.27a68.8,68.8,0,0,0-1.91-8.6A67.1,67.1,0,0,1,93.59,133.34Z"/><path class="cls-4" d="M121.47,58.22c1.62,2.35,0,6.31-3.69,8.84s-7.94,2.68-9.57.33,0-6.31,3.69-8.84S119.84,55.87,121.47,58.22Z"/><path class="cls-5" d="M86.42,96.09c7.24-1.31,13.24-.44,17.94,1.55,3.52-6.83,3.64-13.89-.41-18.5a8.42,8.42,0,0,0-6.23-3.22c-3.1,8.68-11.89,17.65-25,21.39C64.1,99.75,57,98.83,51.76,96.39a7.15,7.15,0,0,0-2,2.67c-2,4.49,1.73,11.9,9.73,15.75C63.43,106.52,73,98.52,86.42,96.09Z"/><path class="cls-13" d="M72.67,97.31c13.16-3.74,22-12.71,25-21.39-7.3-.22-15.69,9.55-24.6,14.57-6.78,3.82-16.57,2-21.36,5.9C57,98.83,64.1,99.75,72.67,97.31Z"/><path class="cls-14" d="M80.68,115.88c11.57-3.29,19.75-10.62,23.68-18.24-4.7-2-10.7-2.86-17.94-1.55-13.4,2.43-23,10.43-27,18.72C64.76,117.36,71.94,118.37,80.68,115.88Z"/><path class="cls-5" d="M24.05,62.6c-.05-5.21,3.47-9.39,7.11-12.75a23.48,23.48,0,0,1,6.21-4.28,15.44,15.44,0,0,1,3.68-1.16,13.82,13.82,0,0,1,3.84-.3c1.63.19,2.67-2.39.9-2.94a10.73,10.73,0,0,0-4.72-.65,15.22,15.22,0,0,0-4.42,1.41,28.2,28.2,0,0,0-7.51,5.55A20.76,20.76,0,0,0,23,62.68c0,.66,1,.56,1-.08Z"/><path class="cls-5" d="M101.47,22.13c-2.39-2.19-4.8-4.61-7.62-6.21a18.14,18.14,0,0,0-7.8-2.27,17.52,17.52,0,0,0-14.72,6.28c-1,1.26.77,2.67,1.89,1.59a20.22,20.22,0,0,1,13.07-5.26,16.24,16.24,0,0,1,7,1.32,28.21,28.21,0,0,1,7.6,5.25c.44.4,1-.3.59-.7Z"/><path class="cls-3" d="M137.55,144.22c-15.05-5.38-23.37-17-22.67-25.89S120.13,94,129,89.8s34.12,7.58,34.84,12.45.55,12.19-2.72,13.11-16.76-2.87-16.76-2.87,21.76,10.87,21,18.47S153.23,149.82,137.55,144.22Z"/><path class="cls-3" d="M134.47,143c-13.09-5.78-20.24-16.44-19.59-24.66.64-8,4.45-21.5,11.78-27.08"/><path class="cls-15" d="M134.45,143.05a31.28,31.28,0,0,1-13.33-8.72,30.87,30.87,0,0,1-4.35-6.75,22.77,22.77,0,0,1-2.3-7.68,23.71,23.71,0,0,1,.15-4.05c.13-1.33.34-2.66.6-4a47.71,47.71,0,0,1,2.17-7.75A36.75,36.75,0,0,1,121,97a20,20,0,0,1,5.58-5.76l.08.11A25.07,25.07,0,0,0,122,97.51a46.45,46.45,0,0,0-3.19,7.13,58.55,58.55,0,0,0-3.53,15.23,16.05,16.05,0,0,0,1.94,7.51,26.4,26.4,0,0,0,4.79,6.18,48.67,48.67,0,0,0,5.88,5.13,74.47,74.47,0,0,0,6.66,4.24Z"/><path class="cls-16" d="M42.06,135s9.7,48.69,96.24-35.18l7.66,2.69S58,205.4,33.24,125.7"/><path class="cls-16" d="M145,106.39s-53.92,64-24,44,53.4-20.17,32.23-65.84"/><ellipse class="cls-17" cx="140.04" cy="131.71" rx="26.05" ry="24.17"/><path class="cls-18" d="M139.91,155.49a24,24,0,1,1,24-24A24,24,0,0,1,139.91,155.49Zm0-47.22a23.25,23.25,0,1,0,23.24,23.24A23.27,23.27,0,0,0,139.91,108.27Z"/><circle class="cls-19" cx="137.3" cy="130.85" r="23.31"/><g class="cls-20"><polygon class="cls-21" points="112.39 120.86 155.32 156.18 161.95 150.44 113.98 118.34 112.39 120.86"/><polygon class="cls-21" points="115.18 115.25 164.81 148.7 167.12 147 117.24 114.22 115.18 115.25"/></g><path class="cls-3" d="M151.78,125.81h0c.62,3.28,4.33,5.35,8.3,4.64l10.92-2c4-.72,6.68-3.95,6.06-7.23h0c-.62-3.27-4.33-5.35-8.3-4.63l-10.92,2C153.88,119.3,151.16,122.54,151.78,125.81Z"/><g class="cls-22"><path class="cls-23" d="M151.85,125.8A5,5,0,0,0,154,129a7,7,0,0,0,3.63,1.13,15.12,15.12,0,0,0,3.82-.52c1.31-.26,2.63-.48,3.95-.68l4-.52a11.52,11.52,0,0,0,3.82-.87,6.63,6.63,0,0,0,2.87-2.55,4.93,4.93,0,0,0,.61-3.64,5.06,5.06,0,0,0-2.08-2.93,7.1,7.1,0,0,0-3.43-1.22,12.26,12.26,0,0,0-3.78.42c-1.31.26-2.63.49-3.94.73s-2.64.45-4,.64a15,15,0,0,0-3.77.8,6.76,6.76,0,0,0-3,2.32A4.87,4.87,0,0,0,151.85,125.8Zm-.14,0a5.91,5.91,0,0,1,.69-3.94,7.71,7.71,0,0,1,2.93-2.93,11.71,11.71,0,0,1,3.93-1.29c1.31-.29,2.63-.52,3.94-.78s2.63-.49,4-.7a13.29,13.29,0,0,1,4.17-.29,7.65,7.65,0,0,1,4,1.63,5.61,5.61,0,0,1,1.2,7.69,8,8,0,0,1-3.06,2.7,15.32,15.32,0,0,1-3.88,1.22l-3.92.9c-1.3.28-2.62.53-3.94.74a11.1,11.1,0,0,1-4.12.19A6.89,6.89,0,0,1,151.71,125.82Z"/></g><path class="cls-3" d="M149.41,121.2h0c1.84,3.26,6.38,4.21,10.14,2.12l10.36-5.75c3.76-2.09,5.31-6.42,3.47-9.69h0c-1.85-3.26-6.39-4.21-10.15-2.12l-10.36,5.75C149.11,113.6,147.56,117.94,149.41,121.2Z"/><g class="cls-22"><path class="cls-23" d="M149.47,121.16a5.74,5.74,0,0,0,3.26,2.61,7.44,7.44,0,0,0,4.13.08,9.25,9.25,0,0,0,1.91-.75c.58-.31,1.22-.71,1.85-1.06,1.25-.73,2.52-1.41,3.81-2.08l3.89-1.94c.64-.33,1.32-.64,1.92-1a7.69,7.69,0,0,0,1.65-1.3,7,7,0,0,0,1.9-3.7,5.6,5.6,0,0,0-.74-4,6,6,0,0,0-3.12-2.41,7.31,7.31,0,0,0-4-.21,11.7,11.7,0,0,0-3.75,1.69c-1.25.73-2.52,1.42-3.79,2.12s-2.54,1.39-3.83,2a14,14,0,0,0-3.54,2.19,7.21,7.21,0,0,0-2.12,3.53A5.67,5.67,0,0,0,149.47,121.16Zm-.12.07a7.43,7.43,0,0,1,1.05-8.35,11.89,11.89,0,0,1,3.56-2.73c1.24-.74,2.51-1.44,3.76-2.17s2.53-1.41,3.81-2.09c.65-.34,1.24-.69,2-1a9.08,9.08,0,0,1,2.22-.69,8.1,8.1,0,0,1,4.59.46,6.65,6.65,0,0,1,3.4,3.06,6.76,6.76,0,0,1,.56,4.43,7.07,7.07,0,0,1-.77,2.1,8.47,8.47,0,0,1-1.28,1.81,14.29,14.29,0,0,1-3.53,2.64L165,121c-1.24.74-2.5,1.46-3.78,2.14a11.29,11.29,0,0,1-4.18,1.59A7.55,7.55,0,0,1,149.35,121.23Z"/></g><path class="cls-3" d="M146.63,117.9h0c2.55,2.51,7.09,2.13,10.16-.85l8.44-8.22c3.06-3,3.48-7.43.94-9.94h0c-2.55-2.51-7.09-2.12-10.15.86L147.57,108C144.51,111,144.09,115.4,146.63,117.9Z"/><g class="cls-22"><path class="cls-23" d="M147,118.26a5.42,5.42,0,0,0,3.86,1.36,7.44,7.44,0,0,0,3.86-1.26,15.2,15.2,0,0,0,3-2.82c1-1.05,2-2.07,3-3.07l3.08-3a12.36,12.36,0,0,0,2.73-3.16,6.9,6.9,0,0,0,.82-4,5.18,5.18,0,0,0-1.81-3.5,5.61,5.61,0,0,0-3.66-1.23,6.44,6.44,0,0,0-1.94.3,7.62,7.62,0,0,0-1.81.78,12.13,12.13,0,0,0-3,2.72c-1,1-2,2.07-2.94,3.1s-2,2-3,3a15.92,15.92,0,0,0-2.73,3.07,7.19,7.19,0,0,0-1.08,3.9A5.29,5.29,0,0,0,147,118.26Zm-.1.1a6.27,6.27,0,0,1-1.94-3.8,8,8,0,0,1,.65-4.34,12.87,12.87,0,0,1,2.58-3.57c.95-1.06,1.93-2.09,2.89-3.14s2-2.07,3-3.08a13.47,13.47,0,0,1,3.41-2.85,8.16,8.16,0,0,1,4.41-1,6.06,6.06,0,0,1,5.92,5.78,8.19,8.19,0,0,1-.9,4.24,15.72,15.72,0,0,1-2.58,3.48l-2.8,3.23c-1,1-1.92,2.1-2.92,3.11a11.64,11.64,0,0,1-3.44,2.74A7.46,7.46,0,0,1,146.93,118.36Z"/></g><path class="cls-3" d="M138.81,110.43h0a7.9,7.9,0,0,0,10.94-1.19l7.51-9.08a7.53,7.53,0,0,0-1.08-10.74h0a7.89,7.89,0,0,0-10.94,1.2l-7.51,9.07A7.53,7.53,0,0,0,138.81,110.43Z"/><g class="cls-22"><path class="cls-23" d="M138.85,110.38a8,8,0,0,0,1.94,1.08,7.27,7.27,0,0,0,2.16.43,7.6,7.6,0,0,0,4.14-1.06,8.72,8.72,0,0,0,1.65-1.31c.46-.49.91-1.09,1.39-1.68.93-1.17,1.9-2.32,2.89-3.45l3-3.34c.5-.56,1-1.11,1.46-1.67a7.83,7.83,0,0,0,1-1.93,7.49,7.49,0,0,0,.33-2.16,8.18,8.18,0,0,0-.35-2.14A7,7,0,0,0,156,89.72a7.57,7.57,0,0,0-7.95-.51,7.35,7.35,0,0,0-1.65,1.22c-.47.47-.92,1.07-1.4,1.66-.93,1.17-1.9,2.32-2.85,3.47s-1.93,2.3-2.92,3.42c-.49.57-1,1.14-1.44,1.66a8.63,8.63,0,0,0-1,1.84,7.65,7.65,0,0,0-.45,2.08,8.33,8.33,0,0,0,.2,2.16,7.49,7.49,0,0,0,.88,2A8.34,8.34,0,0,0,138.85,110.38Zm-.08.1a8.09,8.09,0,0,1-2.9-8.27,8.18,8.18,0,0,1,.91-2.21,21.91,21.91,0,0,1,1.38-1.86C139.08,97,140,95.8,141,94.63s1.9-2.32,2.88-3.46a21.75,21.75,0,0,1,1.56-1.73,8.91,8.91,0,0,1,2-1.38,8.23,8.23,0,0,1,9,1.07A8.62,8.62,0,0,1,158,90.9a9.16,9.16,0,0,1,1,2.11,8.26,8.26,0,0,1,0,4.57,8.84,8.84,0,0,1-.94,2.11c-.43.66-.89,1.24-1.34,1.84l-2.72,3.59c-.93,1.18-1.87,2.35-2.84,3.49a17.46,17.46,0,0,1-1.57,1.7,7.75,7.75,0,0,1-2,1.29A8.51,8.51,0,0,1,138.77,110.48Z"/></g><path class="cls-3" d="M129.36,89.82a31.27,31.27,0,0,1,20.74,12.29c8.12,11.17-4.33,17.54-10.91,14a28,28,0,0,1-9.87-8.9"/><path class="cls-15" d="M129.36,89.75a24.26,24.26,0,0,1,7.87,1.68,26.44,26.44,0,0,1,7,4,31.07,31.07,0,0,1,2.95,2.78l1.31,1.54c.44.5.81,1.07,1.22,1.59a18.86,18.86,0,0,1,2.17,3.4,11.36,11.36,0,0,1,1.2,3.9,7.48,7.48,0,0,1-.74,4.12,8.45,8.45,0,0,1-2.83,3.16,11,11,0,0,1-8.11,1.75,8.84,8.84,0,0,1-2.06-.66,16.32,16.32,0,0,1-1.8-1,30,30,0,0,1-3.24-2.46,24.17,24.17,0,0,1-5.08-6.24l.11-.07a32.18,32.18,0,0,0,5.65,5.48,29.08,29.08,0,0,0,3.25,2.16c.57.29,1.15.66,1.69.88a7.49,7.49,0,0,0,1.75.51,10.3,10.3,0,0,0,7.13-1.39,7.82,7.82,0,0,0,2.58-2.6,7.05,7.05,0,0,0,1-3.56,11.6,11.6,0,0,0-3-7.07,25.92,25.92,0,0,0-5.81-5.26,40,40,0,0,0-14.24-6.43Z"/></g></g></svg>