<svg id="Layer_1" data-name="Layer 1" xmlns="http://www.w3.org/2000/svg" xmlns:xlink="http://www.w3.org/1999/xlink" viewBox="0 0 224.68 173.21"><defs><style>.cls-1{fill:none;}.cls-2{fill:#fdc609;}.cls-3{fill:#edaf0a;}.cls-4{fill:#d75249;}.cls-5{fill:#fff;}.cls-6{fill:#461610;}.cls-7{fill:#dfa505;}.cls-8{clip-path:url(#clip-path);}.cls-9{clip-path:url(#clip-path-2);}.cls-10{fill:#f49520;}.cls-11{opacity:0.67;}.cls-12,.cls-17{fill:#eb6915;}.cls-13,.cls-14{fill:#ffefa4;}.cls-13{opacity:0.72;}.cls-15{fill:#f59e14;}.cls-16{fill:#f9cb01;opacity:0.63;}.cls-17{opacity:0.71;}.cls-18{fill:#c74f17;}.cls-19{isolation:isolate;}.cls-20{fill:#251e45;}.cls-21{fill:#3b2a62;}</style><clipPath id="clip-path"><path id="SVGID" class="cls-1" d="M64.09,121.2c-1.38-3-11.35-9.57-11.35-9.57s-14.19-11.92-19.86-5.5c-3.07,3.46-1.45,4.6-1.63,8.43-1,.63-4.75,1.83-6.06,4.26s-1.51,6.18-1.14,9.48c-1.55,1.41-3.47,2.31-4.23,4.66C17,141.73,23.63,146.55,41.36,152c5.75,1.78,11.55-4.18,10-6.89A10.73,10.73,0,0,0,47.81,142c2,.7,4.28,1,5.9-.71,3.33-3.43,5-7.81,3.8-10.27a5.37,5.37,0,0,0-.95-1.23c1.12.54,2.07.77,2.6.4C61.3,128.68,65.48,124.24,64.09,121.2Z"/></clipPath><clipPath id="clip-path-2"><path id="SVGID-2" data-name="SVGID" class="cls-1" d="M167,121.82c1.39-3,11.36-9.58,11.36-9.58s14.18-11.91,19.86-5.5c3.07,3.47,1.44,4.61,1.63,8.44,1,.63,4.75,1.82,6.05,4.25s1.51,6.19,1.15,9.49c1.54,1.41,3.47,2.31,4.22,4.66,2.83,8.76-3.8,13.59-21.54,19.08-5.74,1.78-11.54-4.18-10-6.9a10.84,10.84,0,0,1,3.52-3.17c-1.95.71-4.27,1-5.9-.71-3.32-3.43-5-7.8-3.8-10.27a5.43,5.43,0,0,1,1-1.22c-1.13.54-2.07.76-2.6.39C169.8,129.29,165.61,124.86,167,121.82Z"/></clipPath></defs><circle class="cls-2" cx="115.95" cy="83.86" r="68.64" transform="translate(-25.34 106.55) rotate(-45)"/><path class="cls-3" d="M116.62,134.51A68.64,68.64,0,0,1,47.81,75.77,68.64,68.64,0,1,0,183.86,74,68.63,68.63,0,0,1,116.62,134.51Z"/><path class="cls-4" d="M117.42,96.83a46.77,46.77,0,0,0-13.62,5.22c3.88,3,8.19,5.21,12.34,4.9,5.56-.43,13-4.4,19-9C129.29,96.51,123.33,95.77,117.42,96.83Z"/><path class="cls-5" d="M125.34,84.84a111.53,111.53,0,0,0,14.5-3.67c-12.63-3.59-38.7-1.53-46.91,2C103.21,86.64,114.58,86.76,125.34,84.84Z"/><path class="cls-6" d="M144.74,83.33a15.77,15.77,0,0,0-4.9-2.16,111.53,111.53,0,0,1-14.5,3.67c-10.76,1.92-22.13,1.8-32.41-1.71-1.44.61-2.35,1.27-2.52,2-.33,1.3,5.69,10.92,13.39,17a46.77,46.77,0,0,1,13.62-5.22c5.91-1.06,11.87-.32,17.75,1.09C142.54,92.26,147.76,85.62,144.74,83.33Z"/><path class="cls-4" d="M80.2,84.69c0,2.85-4.39,5.22-9.9,5.29s-10-2.18-10-5,4.4-5.22,9.91-5.29S80.17,81.84,80.2,84.69Z"/><path class="cls-4" d="M173,83.47c0,2.84-4.39,5.21-9.9,5.29s-10-2.18-10-5,4.4-5.22,9.9-5.29S173,80.62,173,83.47Z"/><path class="cls-6" d="M62.53,38.43a73.58,73.58,0,0,0,21.77.81,72.54,72.54,0,0,0,10.74-2c3.4-.9,7.35-1.78,10.23-3.9a1.22,1.22,0,0,0-.94-2.22,31.69,31.69,0,0,0-5,1.84c-1.65.67-3.32,1.28-5,1.81a71.38,71.38,0,0,1-10.11,2.38,69.05,69.05,0,0,1-21.38,0c-.84-.14-1.21,1.13-.35,1.29Z"/><path class="cls-6" d="M158.62,34.63c-7-9.65-21.53-14.55-31.95-7.34-1,.68-.41,2.52.87,2.07,5.23-1.83,11-2.9,16.46-1.74a23.81,23.81,0,0,1,13.29,8c.61.73,1.9-.25,1.33-1Z"/><path class="cls-7" d="M65.82,122c-.55-1.55-2.27-2.3-3.82-2.87L49.78,125.2a27.22,27.22,0,0,0-5,8.91,7.32,7.32,0,0,0-.49,2.8A6.3,6.3,0,0,0,46,140.54a12.78,12.78,0,0,0,9.53,4.23,7.83,7.83,0,0,0,4.09-1,4.6,4.6,0,0,0,2.28-3.42,13.43,13.43,0,0,0-.23-2.52c-.46-4.51,2.69-8.52,4-12.87A4.87,4.87,0,0,0,65.82,122Z"/><g class="cls-8"><path class="cls-2" d="M64.09,121.2c-1.38-3-11.35-9.57-11.35-9.57s-14.19-11.92-19.86-5.5c-3.07,3.46-1.45,4.6-1.63,8.43-1,.63-4.75,1.83-6.06,4.26s-1.51,6.18-1.14,9.48c-1.55,1.41-3.47,2.31-4.23,4.66C17,141.73,23.63,146.55,41.36,152c5.75,1.78,11.55-4.18,10-6.89A10.73,10.73,0,0,0,47.81,142c2,.7,4.28,1,5.9-.71,3.33-3.43,5-7.81,3.8-10.27a5.37,5.37,0,0,0-.95-1.23c1.12.54,2.07.77,2.6.4C61.3,128.68,65.48,124.24,64.09,121.2Z"/><path class="cls-3" d="M36,136.91a47.72,47.72,0,0,1,17.92,11.28.85.85,0,0,0,1.2-1.21,43.66,43.66,0,0,0-18.9-10.87.42.42,0,0,0-.22.8Z"/><path class="cls-3" d="M41.32,122a47.84,47.84,0,0,1,17.93,11.28.85.85,0,0,0,1.19-1.21,43.6,43.6,0,0,0-18.9-10.87c-.52-.15-.72.63-.22.8Z"/></g><path class="cls-2" d="M35.39,101.26C32.66,105,29.93,112.54,37,117s13.86-2.82,16-6.77C55.86,105,54.36,99.29,50.22,97S40.12,94.76,35.39,101.26Z"/><path class="cls-3" d="M32.9,106.73a14.24,14.24,0,0,0,.15,3.82,9.89,9.89,0,0,0,1.37,3.4A9,9,0,0,0,37,116.73,7,7,0,0,0,40.56,118a9.24,9.24,0,0,0,3.65-.59,14.7,14.7,0,0,0,3.26-1.81A27,27,0,0,0,53,110.19l.1,0a15.16,15.16,0,0,1-4.84,6.33,12.06,12.06,0,0,1-3.65,1.84,7.9,7.9,0,0,1-4.09.18,12.08,12.08,0,0,1-3.7-1.54,11.23,11.23,0,0,1-3.15-2.54,7.16,7.16,0,0,1-1.47-3.84,8.36,8.36,0,0,1,.63-4Z"/><path class="cls-7" d="M165.28,122.63c.54-1.56,2.27-2.3,3.82-2.88l12.21,6.07a27,27,0,0,1,5,8.91,7.24,7.24,0,0,1,.49,2.79,6.39,6.39,0,0,1-1.77,3.64,12.79,12.79,0,0,1-9.54,4.23,8.08,8.08,0,0,1-4.09-1,4.64,4.64,0,0,1-2.28-3.42,14.23,14.23,0,0,1,.23-2.52c.46-4.52-2.69-8.52-4-12.87A4.79,4.79,0,0,1,165.28,122.63Z"/><g class="cls-9"><path class="cls-2" d="M167,121.82c1.39-3,11.36-9.58,11.36-9.58s14.18-11.91,19.86-5.5c3.07,3.47,1.44,4.61,1.63,8.44,1,.63,4.75,1.82,6.05,4.25s1.51,6.19,1.15,9.49c1.54,1.41,3.47,2.31,4.22,4.66,2.83,8.76-3.8,13.59-21.54,19.08-5.74,1.78-11.54-4.18-10-6.9a10.84,10.84,0,0,1,3.52-3.17c-1.95.71-4.27,1-5.9-.71-3.32-3.43-5-7.8-3.8-10.27a5.43,5.43,0,0,1,1-1.22c-1.13.54-2.07.76-2.6.39C169.8,129.29,165.61,124.86,167,121.82Z"/><path class="cls-3" d="M194.86,136.73A43.7,43.7,0,0,0,176,147.6a.85.85,0,0,0,1.21,1.2,47.86,47.86,0,0,1,17.91-11.27c.5-.17.31-.95-.21-.8Z"/><path class="cls-3" d="M189.56,121.83a43.67,43.67,0,0,0-18.92,10.87c-.77.78.43,2,1.22,1.2a47.86,47.86,0,0,1,17.91-11.27c.5-.17.3-.95-.21-.8Z"/></g><path class="cls-2" d="M195.7,101.88c2.73,3.76,5.46,11.28-1.6,15.71s-13.86-2.82-16-6.76c-2.86-5.26-1.36-10.93,2.77-13.27S191,95.38,195.7,101.88Z"/><path class="cls-3" d="M198.31,107.32a8.47,8.47,0,0,1,.64,4,7.27,7.27,0,0,1-1.47,3.84,11.55,11.55,0,0,1-3.15,2.54,12.83,12.83,0,0,1-3.7,1.54,7.89,7.89,0,0,1-4.09-.18,12.14,12.14,0,0,1-3.66-1.85,15,15,0,0,1-4.83-6.32l.1-.06a26.28,26.28,0,0,0,5.48,5.37,14.48,14.48,0,0,0,3.26,1.81,9.4,9.4,0,0,0,3.65.59,7,7,0,0,0,3.58-1.22,9.4,9.4,0,0,0,2.56-2.78,9.68,9.68,0,0,0,1.36-3.4,14.69,14.69,0,0,0,.16-3.82Z"/><path class="cls-10" d="M78.49,140.85,30,113.94h0l6.15-3.55c1.34-.77,2.24-2.85,1.74-4l-3.79-8.6a1.78,1.78,0,0,0-.62-.77L33.32,97a2.26,2.26,0,0,0-2,.17l-.17.1-14.81,8.54-.17.11a5.2,5.2,0,0,0-.88.7,7.31,7.31,0,0,0-.89,1.08,7.21,7.21,0,0,0-1,2.15L8.41,121.34a1.89,1.89,0,0,0,.29,2h0a.71.71,0,0,0,.26.16l61.5,36.44L72.28,161l8.46-18.9Z"/><g class="cls-11"><polygon class="cls-12" points="34.52 102.57 34.52 102.57 36.76 103.81 35.87 101.79 34.52 102.57"/><path class="cls-12" d="M11,115.25l-2.6,6.09a1.89,1.89,0,0,0,.29,2h0a.71.71,0,0,0,.26.16l61.5,36.44L72.28,161l3.34-7.46Z"/></g><path class="cls-10" d="M96,133.53l-8.94,5.16-6.46,3.73-2.11,1.22-1.1.63-.92-.53L64.91,137,56,131.82l-4.45-2.58L31.77,117.76l-4.17-2.43-6.26-3.63-7-4a7.31,7.31,0,0,1,.89-1.08,5.2,5.2,0,0,1,.88-.7l15.15-8.75a4.5,4.5,0,0,1,.48-.2,2,2,0,0,1,1.55,0l.17.09,18,10.49L56,110.11l8.94,5.2,22.15,12.87L95.39,133l.23.13A1.52,1.52,0,0,1,96,133.53Z"/><path class="cls-13" d="M96,133.53l-8.94,5.16V128.18L95.39,133l.23.13A1.52,1.52,0,0,1,96,133.53Z"/><path class="cls-14" d="M71.48,160.54l.8.46,8.46-18.9-2.25-1.25-1,.47c-2.12,1-2.43,1.76-3.43,5l-3.31,12.5A1.56,1.56,0,0,0,71.48,160.54Z"/><polygon class="cls-14" points="77.5 141.32 93.22 133.3 95.2 133.81 79.45 142.93 77.5 141.32"/><path class="cls-14" d="M13.67,108.89l6.73,3.92,5.14,3,.62.37,50.47,29.65.92.54,1.74-1,1.06-.62-.62-.36-1.24-.73L28.94,114.56l-6.7-3.93-.13-.07-6.85-4a7.31,7.31,0,0,0-.89,1.08A7.58,7.58,0,0,0,13.67,108.89Z"/><path class="cls-15" d="M100.14,143.45a4.18,4.18,0,0,1-1.87,3l-1,.6-1.06.61h0L94,149l-.06,0h0l-.33.19-2.14,1.24-.7.4-.26.15-10.59,6.11-6.43,3.72c-1.33.77-2.25-.26-1.75-2l1.89-6.58,1.84-6.36a7.83,7.83,0,0,1,1.91-3.22,5.35,5.35,0,0,1,1.07-.82l.1-.06.26-.15,1.69-1,1.16-.67.39-.23,2.18-1.26h0l1.17-.68,5.27-3,2.55-1.47a2.35,2.35,0,0,1,2.17-.28,1.71,1.71,0,0,1,.23.13,1.52,1.52,0,0,1,.38.38,1.88,1.88,0,0,1,.21.37l3.43,7.75.37.84A2,2,0,0,1,100.14,143.45Z"/><polygon class="cls-13" points="55.97 110.11 55.97 131.82 64.91 137.02 64.91 115.31 55.97 110.11"/><path class="cls-13" d="M31.77,96.91v20.85l19.75,11.48V107.53L33.49,97,33.32,97A2,2,0,0,0,31.77,96.91Z"/><path class="cls-5" d="M86.88,117.56l-.46.26a.27.27,0,0,0,0,.47l.46.25a.23.23,0,0,1,.11.11l.25.46a.27.27,0,0,0,.48,0l.25-.46a.23.23,0,0,1,.11-.11l.46-.25a.27.27,0,0,0,0-.47l-.46-.26a.22.22,0,0,1-.11-.1l-.25-.46a.27.27,0,0,0-.48,0l-.25.46A.22.22,0,0,1,86.88,117.56Z"/><path class="cls-5" d="M81.28,124.59l-1,.58a.32.32,0,0,0,0,.57l1,.58a.27.27,0,0,1,.13.13l.58,1.06a.33.33,0,0,0,.57,0l.58-1.06a.33.33,0,0,1,.13-.13l1.06-.58a.32.32,0,0,0,0-.57l-1.06-.58a.33.33,0,0,1-.13-.13l-.58-1.06a.33.33,0,0,0-.57,0l-.58,1.06A.27.27,0,0,1,81.28,124.59Z"/><path class="cls-5" d="M76.4,112.87l-1.58.86a.42.42,0,0,0,0,.73l1.58.87a.44.44,0,0,1,.17.16l.87,1.59a.41.41,0,0,0,.72,0l.87-1.59a.44.44,0,0,1,.17-.16l1.59-.87a.42.42,0,0,0,0-.73l-1.59-.86a.46.46,0,0,1-.17-.17l-.87-1.59a.41.41,0,0,0-.72,0l-.87,1.59A.46.46,0,0,1,76.4,112.87Z"/><path class="cls-10" d="M84.23,138.5l12,9.18,1.06-.61,1-.6a4.18,4.18,0,0,0,1.87-3,2,2,0,0,0-.13-.95l-.37-.84-3.43-7.75a1.88,1.88,0,0,0-.21-.37,1.52,1.52,0,0,0-.38-.38,1.71,1.71,0,0,0-.23-.13,2.35,2.35,0,0,0-2.17.28l-2.55,1.47-5.27,3Z"/><polygon class="cls-16" points="78.52 141.79 90.47 150.97 90.74 150.82 91.44 150.41 93.58 149.18 81.63 140 80.47 140.67 78.78 141.64 78.52 141.79"/><path class="cls-17" d="M79.89,157.08l-6.43,3.72c-1.33.77-2.25-.26-1.75-2l1.89-6.58Z"/><path class="cls-18" d="M43.15,107.06a8.5,8.5,0,0,1,2.22,1.64,1.74,1.74,0,0,1,.45,1.35,2.6,2.6,0,0,1-.79,1.42L41.45,110a.86.86,0,0,0,.24-.88,1.76,1.76,0,0,0-.84-.84,4.25,4.25,0,0,0-2.37-.54,6.36,6.36,0,0,0-2.88,1c-1.1.64-1.68,1.22-1.73,1.73s.29,1,1,1.41a5.27,5.27,0,0,0,1.16.5,11.67,11.67,0,0,0,1.62.33l1-.55-2.11-1.22,2.11-1.23,4.88,2.82L39.19,115a22.15,22.15,0,0,1-3.77-.68,13.63,13.63,0,0,1-2.89-1.27A5.8,5.8,0,0,1,30.18,111a2.09,2.09,0,0,1,.06-2.09,5.49,5.49,0,0,1,2.16-2A10.51,10.51,0,0,1,36,105.65a10.79,10.79,0,0,1,3.88.08A11.08,11.08,0,0,1,43.15,107.06Z"/><g class="cls-19"><polygon class="cls-18" points="64.77 119.75 57.13 124.19 62.05 127.03 59.55 128.48 51.48 123.82 61.62 117.92 64.77 119.75"/><path class="cls-18" d="M77.24,130.5a8,8,0,0,1-1.71,1.29,11,11,0,0,1-2.9,1.25,9.91,9.91,0,0,1-2.53.27,7.45,7.45,0,0,1-2.23-.35,12.13,12.13,0,0,1-2.15-.92L61,129.33l10.14-5.89,4.69,2.7a5.82,5.82,0,0,1,1.86,1.51,1.86,1.86,0,0,1,.34,1.44A2.73,2.73,0,0,1,77.24,130.5Zm-6.94.38a7.71,7.71,0,0,0,2-.88q1.61-.94,1.68-1.59c0-.44-.35-.89-1.16-1.36l-.79-.46-5.54,3.23.77.44a5.52,5.52,0,0,0,1.63.69,3.62,3.62,0,0,0,1.41-.07"/></g><path class="cls-18" d="M57.35,116.84c0,1-.79,2.06-2.42,3a11.1,11.1,0,0,1-3.52,1.34,10.34,10.34,0,0,1-3.51,0A10.48,10.48,0,0,1,44.42,120a6.38,6.38,0,0,1-2.31-2,2.14,2.14,0,0,1-.1-2.07,5.14,5.14,0,0,1,2.26-2.12,10.3,10.3,0,0,1,10.52,0C56.49,114.76,57.34,115.78,57.35,116.84Zm-8.45,2.21a6.71,6.71,0,0,0,2.91-1c1-.55,1.46-1.07,1.51-1.55s-.25-.91-.91-1.3a4,4,0,0,0-2.21-.49,6.28,6.28,0,0,0-2.79,1c-1,.59-1.57,1.13-1.64,1.61s.24.91.9,1.29a4,4,0,0,0,2.23.53"/><path class="cls-18" d="M38.56,112.18l.7.4-1,.56a11.5,11.5,0,0,1-1.62-.34,5.25,5.25,0,0,1-1.16-.49,3.1,3.1,0,0,1-.61-.44,5.25,5.25,0,0,0,1.16.49,10.37,10.37,0,0,0,1.62.33Z"/><path class="cls-18" d="M41.46,110a.9.9,0,0,0,.24-.88,1.14,1.14,0,0,0-.28-.42l0,0a1.76,1.76,0,0,1,.84.84.77.77,0,0,1-.13.72Z"/><polygon class="cls-18" points="39.34 110.09 39.26 110.14 39.26 110.14 37.22 111.32 36.53 110.92 38.64 109.69 39.34 110.09"/><path class="cls-18" d="M44.78,108.12c-.29-.2-.63-.4-1-.63a11.31,11.31,0,0,0-3.29-1.32,10.61,10.61,0,0,0-7.46,1.2,5.54,5.54,0,0,0-2.16,2,2.11,2.11,0,0,0-.06,2.09,4,4,0,0,0,1.09,1.23,4.82,4.82,0,0,1-1.7-1.67,2.08,2.08,0,0,1,0-2.09,5.52,5.52,0,0,1,2.17-2A10.51,10.51,0,0,1,36,105.64a10.79,10.79,0,0,1,3.88.08,11,11,0,0,1,3.28,1.33A13.59,13.59,0,0,1,44.78,108.12Z"/><g class="cls-19"><polygon class="cls-18" points="62.32 118.32 62.25 118.36 62.24 118.36 59.27 120.09 59.2 120.13 52.18 124.21 51.48 123.81 61.63 117.92 62.32 118.32"/><path class="cls-18" d="M71.18,123.43,61,129.33l.69.39,8.66-5,0,0,1.36-.79h0l.08,0Zm2.37,4.12a1,1,0,0,1,.43.85c0,.43-.6,1-1.67,1.59a7.51,7.51,0,0,1-2,.88,3.48,3.48,0,0,1-1.42.07,5.6,5.6,0,0,1-1.62-.69l-.08,0-.08,0,.77.45a5.2,5.2,0,0,0,1.63.68,3.42,3.42,0,0,0,1.41-.06,7.8,7.8,0,0,0,2-.89q1.6-.93,1.68-1.59T73.55,127.55Z"/></g><path class="cls-18" d="M54.8,113.77a10.38,10.38,0,0,0-10.53,0A5.17,5.17,0,0,0,42,115.91a2.12,2.12,0,0,0,.1,2.06,5.15,5.15,0,0,0,1.66,1.56,4.31,4.31,0,0,1-1.05-1.12,2.12,2.12,0,0,1-.1-2.06,5.15,5.15,0,0,1,2.26-2.13,10.33,10.33,0,0,1,10.52,0c.2.11.39.23.57.35A9.67,9.67,0,0,0,54.8,113.77ZM53,115.59l-.06,0a1,1,0,0,1,.36.88c0,.48-.56,1-1.51,1.55A6.74,6.74,0,0,1,48.9,119a3.91,3.91,0,0,1-2.16-.49,2.54,2.54,0,0,0,.55.41,4,4,0,0,0,2.23.53,6.71,6.71,0,0,0,2.91-1c1-.56,1.46-1.08,1.52-1.55S53.69,116,53,115.59Z"/><path class="cls-14" d="M16.43,110.5s-1.69-1.18-3.1,1.6c-1.83,3.63-4.92,9.24-4.92,9.24l5.26-12.45Z"/><path class="cls-20" d="M180.68,51.51A66.36,66.36,0,0,1,173.59,73a10,10,0,0,1-5.1,4.54,46.45,46.45,0,0,1-14.13,3.09A48.26,48.26,0,0,1,135.59,78,10.15,10.15,0,0,1,131,74.64a59,59,0,0,1-8.67-17.17c-4.22-1.62-9.31-2-13.3-.27a59.34,59.34,0,0,1-8.16,18,9.9,9.9,0,0,1-4.47,3.56,48,48,0,0,1-15.83,3.3,47,47,0,0,1-17.06-2.54,9.83,9.83,0,0,1-4.38-3.09,8.6,8.6,0,0,1-.88-1.26A66.17,66.17,0,0,1,50.35,54c-1.18-6.2,3-12.08,9-12.54,5.22-.39,12.12-.81,20-1,6.61-.17,13.89-.17,21.38.12a9.48,9.48,0,0,1,2.84.54,10.39,10.39,0,0,1,6.65,8.55,25.3,25.3,0,0,1,10.5.13A10.17,10.17,0,0,1,129.85,40c8.2-.63,16.13-.89,23.22-.94s13.33.09,18.14.28a9.49,9.49,0,0,1,5.28,1.83A10.78,10.78,0,0,1,180.68,51.51Z"/><path class="cls-21" d="M103.54,41.09l-23,41a47,47,0,0,1-17.06-2.54,9.83,9.83,0,0,1-4.38-3.09l20.19-36c6.61-.17,13.89-.17,21.38.12A9.48,9.48,0,0,1,103.54,41.09Z"/><path class="cls-21" d="M176.49,41.17,154.36,80.63A48.26,48.26,0,0,1,135.59,78a9.81,9.81,0,0,1-3.28-2l20.76-37c7.08-.06,13.33.09,18.14.28A9.49,9.49,0,0,1,176.49,41.17Z"/></svg>