<svg xmlns="http://www.w3.org/2000/svg" xmlns:xlink="http://www.w3.org/1999/xlink" viewBox="0 0 215.17 292.87"><defs><style>.cls-1,.cls-8{fill:none;}.cls-2{isolation:isolate;}.cls-3{clip-path:url(#clip-path);}.cls-4{fill:#93664d;}.cls-5,.cls-6{fill:#fbc357;}.cls-6{opacity:0.5;}.cls-10,.cls-6{mix-blend-mode:multiply;}.cls-7{fill:#fff;}.cls-8{stroke:#272727;stroke-linecap:round;stroke-linejoin:round;}.cls-9{fill:#fdc609;}.cls-10{fill:#bbbdbf;opacity:0.84;}.cls-11{fill:#e9653a;}.cls-12{fill:#461610;}.cls-13{fill:#1a578b;}.cls-14{fill:#1f73b9;}.cls-15{fill:#f39324;}.cls-16{fill:#ee781f;}.cls-17{fill:#f4e841;}.cls-18{fill:#0e456f;}.cls-19{fill:#2e7dc0;}.cls-20{fill:#d0681a;}.cls-21{fill:#f6f5cf;}.cls-22{clip-path:url(#clip-path-2);}.cls-23{fill:#e6a803;}.cls-24{fill:#dfa505;}</style><clipPath id="clip-path"><rect id="SVGID" class="cls-1" x="159.32" y="69.47" width="50.25" height="212.56" transform="translate(8.62 -8.62) rotate(2.74)"/></clipPath><clipPath id="clip-path-2"><path id="SVGID-2" data-name="SVGID" class="cls-1" d="M184.86,262.63c12.57-1.12,19.94-20.24,18.89-33.73s-8.79-21.49-14.51-22.63-20,.55-22.69,7,3.16,9,3.16,9-8.89,4.59-1.42,12.42c-.62.49-6.31,3.56-1,13.43C163.32,252.89,171.18,263.84,184.86,262.63Z"/></clipPath></defs><g class="cls-2"><g id="Layer_1" data-name="Layer 1"><g class="cls-3"><path class="cls-4" d="M170.39,120.1s-4,8.66,2.5,18.77l11-8.19Z"/><polygon class="cls-4" points="169.24 419.91 178.43 420.35 193.72 162.77 179.72 162.1 169.24 419.91"/><circle class="cls-5" cx="187.95" cy="112.56" r="21.27" transform="translate(66.53 294.92) rotate(-87.26)"/><circle class="cls-6" cx="187.95" cy="112.56" r="16.93"/><path class="cls-7" d="M170.51,106.7c1.06,1.16,3.81-1.39,7.36-4.6s6.56-5.88,5.51-7-5.49-.31-9,2.9S169.46,105.54,170.51,106.7Z"/><path class="cls-4" d="M208.62,107.54c-.73,6.1-16.66,14.53-24.15,19.35,0,0-9.82,5.78-12.05,11s-3.64,12.2,0,16.32a14.74,14.74,0,0,0,3.4,14.58c-2.17,5-.47,11.26,2.81,15.26,0,0,13.65-8.42,18.23-15.18,5.63-6.59,3.57-17.56,3.57-17.56,3.42-4.41,4.45-8.52,3.7-14.19A9.31,9.31,0,0,0,201,131c3-3.18,6-3.93,8.2-10.29S208.62,107.54,208.62,107.54Z"/><line class="cls-8" x1="172.17" y1="154" x2="200.99" y2="131.04"/><line class="cls-8" x1="175.83" y1="168.69" x2="200.47" y2="151.32"/><path class="cls-8" d="M178.86,130.77c-2.38,1.86-4.88,4.18-6.11,6.44"/><path class="cls-8" d="M193.1,173.19c-4.75,4.52-12.64,6.12-14.43,10.87"/></g><circle class="cls-9" cx="111.13" cy="201.85" r="65.71" transform="translate(-45.32 32.69) rotate(-13.93)"/><path class="cls-10" d="M102.65,249.6a65.71,65.71,0,0,0,74.11-44.84,65.7,65.7,0,1,1-130.33-14.4A67.32,67.32,0,0,1,48.5,182,65.72,65.72,0,0,0,102.65,249.6Z"/><path class="cls-11" d="M174.73,185.35a19.52,19.52,0,0,0-4,.22c-7,1.11-12,5.63-11.3,10.1s6.93,7.18,13.88,6.07a18.52,18.52,0,0,0,3.52-.9A65.39,65.39,0,0,0,174.73,185.35Z"/><ellipse class="cls-11" cx="82.26" cy="191.98" rx="8.19" ry="12.75" transform="translate(-115.27 259.82) rotate(-85.76)"/><path class="cls-12" d="M90.26,167.07A38.21,38.21,0,0,0,94,177.6c1.47,2.7,3.34,5.53,6.43,6.49s7.07-.4,9.62-2.41c2.9-2.3,3-6,2.82-9.36-.22-4.35-.57-9.3-3.16-12.93-.76-1.07-2.71-.81-2.67.72.13,4.14,1.62,8,2,12.18.17,1.74.58,4-.07,5.68a6.29,6.29,0,0,1-3.52,3,6.18,6.18,0,0,1-5.13.22,9.58,9.58,0,0,1-3.54-3.66,46.91,46.91,0,0,1-5.06-10.89.79.79,0,0,0-1.52.41Z"/><path class="cls-12" d="M157.86,160.87a26.36,26.36,0,0,1-.35,11.49,4,4,0,0,1-3.62,3.33,6.91,6.91,0,0,1-4.38-1.1c-2.7-1.65-4.35-4.56-5.43-7.45-.64-1.71-1.14-3.47-1.67-5.2-.59-1.92-1.26-3.76-2-5.62a1.25,1.25,0,0,0-2.44.31,29.3,29.3,0,0,0,2,10.54c1.14,3.06,2.59,6.13,5.16,8.26a10.53,10.53,0,0,0,8.1,2.54,6.66,6.66,0,0,0,3.91-1.87,7.84,7.84,0,0,0,1.66-3.9,28.09,28.09,0,0,0-.16-11.55c-.12-.55-.93-.32-.83.22Z"/><path class="cls-12" d="M144,191.48c-6.16,2.77-13.19.23-17.34-4.76-1-1.23-2.72.35-2.09,1.62a13.23,13.23,0,0,0,8.72,7,14.53,14.53,0,0,0,11.64-2.23.93.93,0,0,0-.93-1.6Z"/><path class="cls-12" d="M152.43,143.15a13.05,13.05,0,0,1-4,1.16c-1.22.17-2.43.45-3.66.57a26.79,26.79,0,0,1-3.8.08,15.56,15.56,0,0,0-4.2.27,1.4,1.4,0,0,0-.33,2.55,8.15,8.15,0,0,0,4.5.87,30.44,30.44,0,0,0,4.36-.69,16.61,16.61,0,0,0,4.06-1.43c1.27-.68,2.51-1.43,3.76-2.16.8-.46.09-1.6-.72-1.22Z"/><path class="cls-12" d="M84.23,149.37c-.11-5.62,2.21-12,7.56-14.63,4.4-2.15,10.51-.91,13.18,3.38a.81.81,0,0,0,1.39-.82c-2.62-5.39-9.78-6.53-14.85-4.13-6,2.82-8.53,10-8.23,16.2,0,.6,1,.61,1,0Z"/><path class="cls-13" d="M77.59,59.9l17.89,3.33,2.22-28.5,20.6,6,6.85-14.59L138,29.52,122.8,18.73l-5.93,9.63L90.66,16.21,82.45,41.46,53.9,35.73,38.42,152.23,10.19,194.31s45.39,3,81.78-20.06,89.5-37.94,89.5-37.94l-51.41-19Z"/><polygon class="cls-14" points="138.04 29.52 131.7 25.04 130.53 27.55 138.04 29.52"/><path class="cls-14" d="M150.18,146.7c17.92-6.65,31.29-10.39,31.29-10.39l-.86-.32C173.56,138.21,162.6,141.86,150.18,146.7Z"/><path class="cls-14" d="M66.28,112.69c-3.43.94-6.66,2.69-10,3.93-2.12.79-4.28,1.46-6.44,2.14.08-.63.17-1.28.25-1.92a48.5,48.5,0,0,0,6.73-2.3c.38-.19.3-.88-.18-.79a42.16,42.16,0,0,0-6.4,2c.3-2.25.61-4.56.92-6.91,2.15-.69,4.3-1.38,6.4-2.21a.28.28,0,0,0-.2-.53c-2,.52-4.06,1.18-6.08,1.83,4.25-32,9.41-70.81,9.41-70.81l-6.8-1.36L38.42,152.23,10.19,194.31s2.73.18,7.4.11C29,194.25,52,192.6,74.77,183.13a167.6,167.6,0,0,1-29.49,6.93c-7.5,1.16-14.91.32-15.47-9.14a19.71,19.71,0,0,1,1-7.45,90,90,0,0,0,14.53-4.23c.34-.14.24-.71-.15-.65a85.49,85.49,0,0,0-13.91,3.61,32.54,32.54,0,0,1,2.57-5,62.3,62.3,0,0,0,25.71-9.08.18.18,0,0,0-.17-.31,95.74,95.74,0,0,1-24.89,8.38c1.09-1.67,2.29-3.35,3.49-5.13,5.11-1.25,10.62-2.67,15.1-5.34.34-.2,0-.65-.31-.56-4.7,1.26-9.21,3.18-13.88,4.61,2.07-2.77,6.53-7.42,6.92-10.37,0,0,1.66-12.48,3.87-29.12a68.9,68.9,0,0,0,7.19-2.26c3.35-1.22,7-2.47,9.84-4.65A.41.41,0,0,0,66.28,112.69Z"/><polygon class="cls-14" points="89.81 38.66 96.26 18.81 90.66 16.21 83.76 37.44 89.81 38.66"/><polygon class="cls-15" points="159.4 29.11 144.6 31.95 142.49 46.88 136.52 36.04 135.21 33.68 131.08 34.41 120.37 36.29 130.68 25.3 123.61 11.98 132.89 16.34 137.25 18.38 142.83 12.62 147.73 7.55 145.86 22.5 159.4 29.11"/><polygon class="cls-16" points="128.72 18.81 133.08 20.86 136.03 17.81 132.89 16.34 123.61 11.98 126.74 17.88 128.72 18.81"/><polygon class="cls-16" points="143.29 12.13 141.69 24.97 152.77 30.38 159.4 29.11 145.86 22.5 147.73 7.55 143.29 12.13"/><polygon class="cls-16" points="140.43 34.42 139.45 41.36 142.49 46.88 144.36 33.67 140.43 34.42"/><polygon class="cls-17" points="142.94 12.2 136.63 35.63 135.21 33.68 131.08 34.41 132.89 16.34 137.25 18.38 142.94 12.2"/><path class="cls-18" d="M130.06,117.36,77.59,59.9l-11.48-5L88.79,90a27.78,27.78,0,0,1-8,2.08.48.48,0,0,0,.09,1,25.36,25.36,0,0,0,8.58-2l4.31,6.67c-3.69.82-7.42,2.9-10.79,4.45a.51.51,0,0,0,.36,1c3.55-1.3,7.76-2.48,11-4.56L111,124.35,75.17,141l49-10.55c-2.38,1.41-4.77,2.82-7.19,4.08Q108.27,139,99.26,143c-.55.24-.23,1.11.33.88,6.22-2.58,12.33-5.4,18.29-8.51,3.05-1.59,6.28-3.18,9.38-4.94l6.27.68c-5.22,3.38-10.28,6.75-16.06,9.33-.58.25-.24,1.15.34.91,6.07-2.46,12.42-5.67,17.41-10.06l5.85.63c-3.84,2.62-7.38,5.29-11.7,7.17-.5.22-.21,1,.3.8,4.44-1.82,9-4.2,12.21-7.86,0,0,0,0,0,0l39.58,4.3Z"/><path class="cls-18" d="M95.48,63.23l2.22-28.5-5.45-4.58,2.2,22.57c-1.3.36-2.61.74-3.91,1.12-.47.14-.2.86.27.72,1.24-.36,2.48-.74,3.71-1.12l.82,8.41Z"/><path class="cls-18" d="M118.3,40.72l-8.45-2.46,15.3-12.13Z"/><path class="cls-15" d="M130.06,117.36q-5,2.74-9.8,5.21l-4.42,2.27c-3.75,1.9-7.35,3.66-10.81,5.31-1.35.65-2.68,1.28-4,1.88-43.4,20.12-62.61,20.2-62.61,20.2l3.52-26.44c9.93-.35,31.94-8.7,49-15.84,2.8-1.15,5.45-2.29,7.91-3.34s4.93-2.14,7-3l2.18-1c3.77-1.67,6-2.73,6-2.73Z"/><path class="cls-16" d="M90.26,137.14s16.48-19.34,9.11-30.75l14.71-6.53,16,17.5S97.83,134.31,90.26,137.14Z"/><path class="cls-17" d="M78.2,117.09c-5.86,2.39-11.5,5.15-17.5,7.21a169.22,169.22,0,0,1-19.17,5.25c-.36.08-.32.65.06.58a128.77,128.77,0,0,0,18.91-4.91c6.09-2.06,12.42-4.35,18-7.62C78.77,117.43,78.51,117,78.2,117.09Z"/><path class="cls-17" d="M57.94,131.09a76.38,76.38,0,0,0-12.41,3.19c-.34.11-.21.71.15.63a75,75,0,0,0,12.39-3.25A.3.3,0,0,0,57.94,131.09Z"/><path class="cls-17" d="M74.14,131.6c-9.86,4.2-19.44,7.62-30,9.6-.46.08-.41.79.07.74,10.4-1.2,21.25-4.35,30.28-9.73C74.81,132,74.5,131.44,74.14,131.6Z"/><path class="cls-17" d="M60,143.29a128.48,128.48,0,0,1-17.2,4.23.31.31,0,0,0,.06.61,48.66,48.66,0,0,0,17.34-4.33A.27.27,0,0,0,60,143.29Z"/><path class="cls-19" d="M53.6,57.64c-1.86,9.22-2.09,19-3,28.31s-2.17,18.91-2.6,28.36c0,.89,1.27,1.17,1.4.24,1.35-9.54,1.83-19.28,2.71-28.87.85-9.24,2.38-18.73,2.25-28C54.4,57.19,53.68,57.2,53.6,57.64Z"/><path class="cls-19" d="M30.07,190.05a6.73,6.73,0,0,1-7.14-2.3c-1.53-2.08-1.11-4.26-.85-6.62a.5.5,0,0,0-.88-.4c-1.91,2.42-1,6.3.9,8.47a7.72,7.72,0,0,0,8.39,2C31.23,190.9,30.79,189.86,30.07,190.05Z"/><path class="cls-18" d="M92,50c-4.12,2.32-7.61,4.2-12.48,4.28-.58,0-.47.88.09.9,4.49.13,9.79-1.17,12.84-4.71C92.71,50.16,92.3,49.82,92,50Z"/><path class="cls-18" d="M107,31.3a13.7,13.7,0,0,0-3.53-2.07c-1.33-.67-2.68-1.32-4-2-.52-.25-.85.54-.36.81,1.31.73,2.62,1.46,3.94,2.16a13.54,13.54,0,0,0,3.71,1.65A.34.34,0,0,0,107,31.3Z"/><path class="cls-15" d="M111.52,107.08c-3.59,1.25-6.92,3.57-10.38,5.18s-7.12,3.1-10.78,4.4c-.65.23-.27,1.23.39,1A111.69,111.69,0,0,0,102,113.16c3.25-1.52,7.11-3.11,9.8-5.53A.32.32,0,0,0,111.52,107.08Z"/><path class="cls-15" d="M110.55,114.35a78.53,78.53,0,0,0-10.31,4.51q-5.1,2.42-10.18,4.86c-.57.27-.24,1.19.35.92q5.37-2.42,10.72-4.87a74.14,74.14,0,0,0,9.74-4.83C111.2,114.72,110.9,114.25,110.55,114.35Z"/><path class="cls-15" d="M119.14,116.18c-5,2.7-9.68,5.8-14.78,8.28S94,128.9,88.65,130.9c-.61.24-.25,1.09.36.94a88.26,88.26,0,0,0,16.3-6.28c4.93-2.4,10-5.07,14.26-8.59C119.93,116.67,119.61,115.93,119.14,116.18Z"/><path class="cls-15" d="M136.2,17.64c-1,2.42-1.29,5.23-1.81,7.8-.58,2.92-1.16,5.84-1.67,8.77a.28.28,0,0,0,.56.1c.69-2.91,1.31-5.82,1.91-8.74.54-2.57,1.38-5.24,1.4-7.87C136.59,17.49,136.28,17.46,136.2,17.64Z"/><path class="cls-15" d="M138.37,23.76A16.18,16.18,0,0,0,137,27l-1.4,3.71c-.15.4.45.68.62.27l1.47-3.67A17.25,17.25,0,0,0,138.82,24C138.85,23.72,138.51,23.53,138.37,23.76Z"/><path class="cls-18" d="M130.83,148.61c-5.28-.05-10.94,2.27-15.67,4.43a129.29,129.29,0,0,0-14.54,8.12c-4.85,3-9.64,6.14-14.65,8.89a93.18,93.18,0,0,1-17,7,.36.36,0,0,0,.16.69C80,176.25,90,169.26,99,163.56a157.26,157.26,0,0,1,15.37-8.85,61.11,61.11,0,0,1,8.12-3.25c2.81-.89,5.69-1.26,8.52-2C131.56,149.34,131.29,148.61,130.83,148.61Z"/><path class="cls-20" d="M117.22,123.6c-.09.1-.19.2-.31.31-.34.32-.69.63-1.07.93l4.42-2.27a89.61,89.61,0,0,0-11.75-19.34c-.17-.21-.32-.42-.47-.64l-2.18,1c1.17.46,1.72,2,2.46,3.06.32.49,3.74,6,3.78,5.93-1.16.58-2.19,1.43-3.29,2.11-.77.47-1.79,1.42-2.74,1.45-.75,0-1.35-.83-2.32-.38a2.22,2.22,0,0,0-1.2,1.76,2.56,2.56,0,0,0,.71,2.21,2,2,0,0,0,2.24.33,1.64,1.64,0,0,0,.7-2,26,26,0,0,0,7-3.68c-.08.06,2.82,4.86,3.09,5.32C117.14,121.24,118.34,122.27,117.22,123.6ZM101.4,126l-5-8.84C95,114.73,93,112.31,95,109.59a11.79,11.79,0,0,1,3.46-2.75l.39-.23c-2.46,1-5.11,2.19-7.91,3.34-.61,3.55,2.15,7.72,3.58,10.62,1.54,3.12,3.11,6.22,4.94,9.19A27.1,27.1,0,0,0,101,132c1.32-.6,2.65-1.23,4-1.88a4.91,4.91,0,0,1-.94-.58A11.59,11.59,0,0,1,101.4,126Z"/><path class="cls-17" d="M119.89,124.34a91.12,91.12,0,0,0-12.36-20.73c-1.07-1.31-1.57-2.83-3.42-2.82a8.16,8.16,0,0,0-3.77,1.31c-2.3,1.33-4.63,2.65-6.9,4.05-1.41.88-2.73,1.79-3.26,3.44-1.19,3.68,1.87,8.24,3.4,11.36s3.11,6.22,4.94,9.18c2,3.22,3.82,5.78,7.91,3.86,4.73-2.22,9-5.32,13.51-7.94A1,1,0,0,0,119.89,124.34Zm-3.66-.37a2.91,2.91,0,0,1-.3.31,35.81,35.81,0,0,1-9,5.78c-1.56.74-2.31,1-3.79-.12a11.42,11.42,0,0,1-2.7-3.54l-5-8.84c-1.38-2.46-3.43-4.87-1.38-7.59a11.66,11.66,0,0,1,3.46-2.76q2-1.17,3.89-2.35a7.29,7.29,0,0,1,2.24-1c2.09-.38,2.73,1.71,3.69,3.15.33.49,3.75,6,3.78,5.94-1.15.57-2.19,1.43-3.29,2.11-.77.47-1.79,1.42-2.74,1.44-.75,0-1.35-.83-2.32-.38a2.27,2.27,0,0,0-1.2,1.77,2.54,2.54,0,0,0,.72,2.2,2,2,0,0,0,2.23.33,1.64,1.64,0,0,0,.7-2,25.62,25.62,0,0,0,7-3.68c-.07.07,2.83,4.87,3.09,5.32C116.15,121.62,117.36,122.64,116.23,124Z"/><path class="cls-21" d="M90.32,109.12c-.21,3.76.73,9,3.69,11.59.4.37.95-.13.81-.59-.55-1.73-1.61-3.25-2.21-5a32.11,32.11,0,0,1-1.28-6C91.26,108.61,90.35,108.51,90.32,109.12Z"/><path class="cls-21" d="M97.21,104.56a4.86,4.86,0,0,0-2.32,1.18,31.45,31.45,0,0,0-2.67,1.9c-.32.25,0,.88.37.67,1-.48,1.86-1,2.77-1.57s1.76-.87,2.18-1.72A.33.33,0,0,0,97.21,104.56Z"/><path class="cls-21" d="M104.3,116.11a1.33,1.33,0,0,0-1.55.4,1.52,1.52,0,0,0-.38,1.34c.08.43.77.67.95.15s.74-.45,1.11-.66S104.71,116.35,104.3,116.11Z"/><path class="cls-9" d="M184.86,262.63c12.57-1.12,19.94-20.24,18.89-33.73s-8.79-21.49-14.51-22.63-20,.55-22.69,7,3.16,9,3.16,9-8.89,4.59-1.42,12.42c-.62.49-6.31,3.56-1,13.43C163.32,252.89,171.18,263.84,184.86,262.63Z"/><g class="cls-22"><path class="cls-23" d="M186.42,250.25c-.25-.07-.59.16-.86.08a2.88,2.88,0,0,0-1.17-.1c-.84.12-1.67.29-2.5.37s-1.65.1-2.48.11-1.63-.36-2.45-.4c-1.37-.07-2.75-.06-4.14,0-.92,0-1.87.25-2.81.19a11,11,0,0,1-4.45-1,18.25,18.25,0,0,1-2.95-2.09,3.58,3.58,0,0,1-.39-.29,1,1,0,0,1-.21-.21.66.66,0,0,0-.09-.09l.17.06.17.06c1,.34,1.93.81,2.91,1.18a9.06,9.06,0,0,0,2,.38c.34,0,.63.31,1,.33a17.65,17.65,0,0,0,2.52-.12c.16,0,.29.27.45.26,1.08-.1,2.16-.41,3.22-.47a17.05,17.05,0,0,1,2.64.29c.92.11,1.84.21,2.76.34s1.7.31,2.55.4c.41,0,.83-.11,1.24-.06a8.27,8.27,0,0,1,1.81.4,3.27,3.27,0,0,1,.71.28C186.16,250.13,186.26,250.19,186.42,250.25Z"/><path class="cls-23" d="M191.42,234.06c-.35,0-.77.24-1.15.17a8.53,8.53,0,0,0-1.59-.13,34,34,0,0,1-6.69-.52c-1-.11-2.08-.52-3.17-.54a18.11,18.11,0,0,0-5.32.81c-1.15.36-2.2,1-3.3,1.46a57.9,57.9,0,0,1-5.42,2.1c-.73.22-1.48.41-2.24.59l-1.13.29a11.51,11.51,0,0,0-1.3.42l-.17,0s-.16.06-.08,0l.2-.32.29-.43.11-.17-.05.09-.07.12-.07.13s-.09.13,0,.06.14,0,.22-.07c.27-.14.61-.33.92-.48.64-.31,1.29-.6,1.94-.88.84-.36,1.61-.91,2.43-1.32.42-.22.93-.23,1.34-.45,1-.53,2-1.14,3-1.67.2-.1.49.1.69,0A20.31,20.31,0,0,1,175,231.6a13.66,13.66,0,0,1,3.78-.15,22.35,22.35,0,0,1,3.84.55c1.14.29,2.23.69,3.33,1,.53.13,1.1.07,1.62.19.79.16,1.56.35,2.35.55.32.07.64.14,1,.23A3.13,3.13,0,0,0,191.42,234.06Z"/><path class="cls-23" d="M188.74,219.37c-.29-.13-.73,0-1-.13a3.66,3.66,0,0,0-1.38-.32c-2,0-4,.21-5.9.38-1,.11-2-.1-2.93.06a19.25,19.25,0,0,0-4.66,1.46c-1,.45-1.85,1.17-2.79,1.69a40.07,40.07,0,0,1-4.66,2.39c-1.28.51-2.66.9-3.94,1.46-.18.08-.34.18-.53.25a1.54,1.54,0,0,1-.34.12l-.13.05a1.22,1.22,0,0,0,.15-.14,1.29,1.29,0,0,1,.17-.15,18.89,18.89,0,0,1,3.2-2.12c.72-.41,1.35-1,2.05-1.44.36-.23.81-.28,1.17-.51.84-.59,1.65-1.26,2.53-1.84.16-.11.45,0,.62-.06a21.43,21.43,0,0,1,3.52-2.08,12.92,12.92,0,0,1,3.33-.64,25.13,25.13,0,0,1,3.47-.17c1.07,0,2.13.19,3.17.31.5.05,1-.05,1.52,0a8.69,8.69,0,0,1,2.17.68,5.37,5.37,0,0,1,.81.45C188.45,219.19,188.56,219.27,188.74,219.37Z"/></g><path class="cls-24" d="M178.9,206.31a45,45,0,0,0-5.79,2.21,13.24,13.24,0,0,0-4.69,3.44,4.88,4.88,0,0,0-.69,1.15c-.19.4-.33.89-.49,1.32a7.64,7.64,0,0,0-.24,2.72,6.17,6.17,0,0,0,3.13,4.48l.74.43-.71.34a8.69,8.69,0,0,0-2.85,2.23,5.67,5.67,0,0,0-1.38,3.25,6.2,6.2,0,0,0,.89,3.37,16.06,16.06,0,0,0,1,1.46l1.25,1.3.61.63-.69.54c-.33.26-.49.39-.72.59a6.55,6.55,0,0,0-.58.6,5.46,5.46,0,0,0-.88,1.36,6.7,6.7,0,0,0-.56,3.21,12.71,12.71,0,0,0,.73,3.38c.21.55.42,1.1.65,1.66s.54,1.08.79,1.63l.31.68-.43.53a4.22,4.22,0,0,0-.79,3.3,9.48,9.48,0,0,0,1.51,3.67,15,15,0,0,0,2.79,3.14,22.41,22.41,0,0,0,3.58,2.45l-.08.2a17.3,17.3,0,0,1-4.11-1.82,13.82,13.82,0,0,1-3.47-3,10.19,10.19,0,0,1-2.17-4.27,6.1,6.1,0,0,1,1-5l-.12,1.21c-.3-.58-.59-1.17-.87-1.76s-.49-1.24-.73-1.86a14.18,14.18,0,0,1-.69-4,8.67,8.67,0,0,1,.94-4.12,7.2,7.2,0,0,1,1.28-1.72,6.61,6.61,0,0,1,.8-.69c.26-.19.61-.43.79-.53l-.08,1.17-1.2-1.59a18.75,18.75,0,0,1-.95-1.77,7.34,7.34,0,0,1-.61-3.95,7.06,7.06,0,0,1,1.63-3.57,10,10,0,0,1,1.36-1.4,10.37,10.37,0,0,1,1.58-1.19l0,.77a8.11,8.11,0,0,1-2.77-1.9,6.57,6.57,0,0,1-1.67-3.06,7.79,7.79,0,0,1,.1-3.5,11.34,11.34,0,0,1,.6-1.62,6.89,6.89,0,0,1,1-1.5,9.89,9.89,0,0,1,2.6-2.17,14.55,14.55,0,0,1,3-1.37,23,23,0,0,1,6.26-1.19Z"/></g></g></svg>