<svg xmlns="http://www.w3.org/2000/svg" xmlns:xlink="http://www.w3.org/1999/xlink" viewBox="0 0 166.47 233.04"><defs><style>.cls-1{fill:none;}.cls-2{isolation:isolate;}.cls-3{fill:#fbc50b;}.cls-4{fill:#e96438;}.cls-18,.cls-5{fill:#bbbdbf;}.cls-17,.cls-5{opacity:0.84;mix-blend-mode:multiply;}.cls-6{fill:#262320;}.cls-7{clip-path:url(#clip-path);}.cls-8{fill:#fff;}.cls-9{fill:#684493;}.cls-10{fill:#6f509b;}.cls-11{fill:#3d245a;}.cls-12{fill:#eef3e2;}.cls-13{clip-path:url(#clip-path-2);}.cls-14{fill:#110e1a;}.cls-15{fill:#efeeed;}.cls-16{fill:#1d0e13;}.cls-19{fill:#d7d8d8;}.cls-19,.cls-20,.cls-22{fill-rule:evenodd;}.cls-20,.cls-21{fill:#b8b5b6;}.cls-22,.cls-24{fill:#eaeaea;}.cls-23{fill:#a6a8ab;}.cls-25{fill:#fff9e8;}</style><clipPath id="clip-path"><path id="SVGID" class="cls-1" d="M130.55,126.4c-.35,8.13,4.19,18.07,10.4,21.07,6.48,3.12,10.7-3.17,9.39-12.61-1.12-8.07-6-15.37-10.85-17.25C134.77,115.79,130.84,119.38,130.55,126.4Z"/></clipPath><clipPath id="clip-path-2"><path id="SVGID-2" data-name="SVGID" class="cls-1" d="M111.28,125.43c2.51,8.31-1.63,17.91-10,20.27-8.79,2.49-16.66-4.45-17.08-14-.37-8.18,5-15.08,11.77-16.37C102.47,114.06,109.11,118.24,111.28,125.43Z"/></clipPath></defs><g class="cls-2"><g id="Layer_1" data-name="Layer 1"><circle class="cls-3" cx="96.92" cy="156.07" r="61.48" transform="translate(-81.97 114.24) rotate(-45)"/><circle class="cls-3" cx="96.92" cy="156.07" r="61.48" transform="translate(-81.97 114.24) rotate(-45)"/><path class="cls-4" d="M146,154.05c0,3.29,4.16,6,9.3,6a13.52,13.52,0,0,0,3-.32,60.87,60.87,0,0,0-.39-11.35,13.45,13.45,0,0,0-2.58-.24C150.19,148.1,146,150.76,146,154.05Z"/><path class="cls-5" d="M120.71,196.38a61.48,61.48,0,0,1-80.48-32.9A58.89,58.89,0,0,1,36,148.57s-.07,0-.07,0a59.74,59.74,0,0,0,4.33,31.3,61.48,61.48,0,0,0,117.62-32A61.43,61.43,0,0,1,120.71,196.38Z"/><path class="cls-6" d="M84.08,131.7A14.06,14.06,0,0,1,86,120.44a15.31,15.31,0,0,1,4.17-4.33,15,15,0,0,1,5.58-2.34,13.37,13.37,0,0,1,10.72,2.58,14.47,14.47,0,0,1,3.44,4,13.41,13.41,0,0,1,1.52,5.07l-.22,0a15,15,0,0,0-5.75-8,12.44,12.44,0,0,0-9.41-2,13.87,13.87,0,0,0-8.56,5.64,17,17,0,0,0-3.12,10.52Z"/><g class="cls-7"><path class="cls-8" d="M130.55,126.4c-.35,8.13,4.19,18.07,10.4,21.07,6.48,3.12,10.7-3.17,9.39-12.61-1.12-8.07-6-15.37-10.85-17.25C134.77,115.79,130.84,119.38,130.55,126.4Z"/><ellipse class="cls-9" cx="137.47" cy="134.82" rx="8.35" ry="11.92" transform="translate(-4.57 4.82) rotate(-1.98)"/><path class="cls-10" d="M144.61,137.25c.16-.89-1.56-2.4-2-1.26s-4.09,10.53-8.36,4.58-.41-9.47-.94-10.4-2.26-2.46-2.44-1.53-2.53,10.6,2.25,14.84S143.25,144.88,144.61,137.25Z"/><path class="cls-11" d="M133.83,131.56c-1.21,2.82-.56,6.57,1.45,8.37s4.62,1,5.83-1.85.56-6.57-1.45-8.37S135,128.74,133.83,131.56Z"/><path class="cls-12" d="M145.92,128.33c2.11,1.7,2.27,2.74,1.68,3.44s-5.9,1.63-6,.07S144,126.75,145.92,128.33Z"/></g><path class="cls-6" d="M150.43,134.9a22.54,22.54,0,0,0-3.18-11.31,21.53,21.53,0,0,0-3.58-4.66,13.54,13.54,0,0,0-4.25-2.83c-2.87-1.09-5.53-.35-7,1.62a9.85,9.85,0,0,0-1.73,3.69,15.81,15.81,0,0,0-.21,5l.17.07c.15-3.19,1.07-5.88,2.66-7.5a5.46,5.46,0,0,1,6.21-1.15c2.46.92,5,3.37,6.85,6.35a28,28,0,0,1,3.89,10.69Z"/><g class="cls-13"><path class="cls-8" d="M111.28,125.43c2.51,8.31-1.63,17.91-10,20.27-8.79,2.49-16.66-4.45-17.08-14-.37-8.18,5-15.08,11.77-16.37C102.47,114.06,109.11,118.24,111.28,125.43Z"/><path class="cls-9" d="M87.75,125c-3.26,5.43-2.13,12.85,2.53,16.57s11.06,2.34,14.32-3.09,2.12-12.86-2.53-16.58S91,119.6,87.75,125Z"/><path class="cls-10" d="M104.82,134.54c.24-.87-1.79-2.47-2.4-1.35s-5.64,10.32-10.55,4.18.06-9.48-.55-10.44-2.63-2.56-2.91-1.64-3.73,10.47,1.9,14.93S102.7,142.1,104.82,134.54Z"/><path class="cls-11" d="M91.89,128.35a6.67,6.67,0,0,0,1.28,8.43c2.37,1.89,5.63,1.19,7.29-1.58a6.67,6.67,0,0,0-1.29-8.43A4.82,4.82,0,0,0,91.89,128.35Z"/><path class="cls-12" d="M107,125.7c2.49,1.8,2.63,2.84,1.86,3.51s-7.36,1.35-7.36-.21S104.64,124,107,125.7Z"/></g><path class="cls-4" d="M118.93,175.71c-8.94-.8-14.63-3.68-18-7.23,11.22-.33,21.61,1.74,29.63,5.72A26.7,26.7,0,0,1,118.93,175.71Z"/><path class="cls-14" d="M98.87,152.18c3.69-3.49,16.1,8.78,24.48,9.74s17.8-6.68,20.39-2.68c1.92,2.95-3.53,11.43-13.19,15-8-4-18.41-6-29.63-5.72C95,162.24,96.49,154.43,98.87,152.18Z"/><path class="cls-15" d="M121.06,165.84c-14-1.71-19.71-8.22-21.28-14.15,4.53-1.3,15.78,9.34,23.57,10.23,7.51.87,15.65-5,19.21-3.64A25,25,0,0,1,121.06,165.84Z"/><path class="cls-16" d="M83.67,103.5a33.66,33.66,0,0,1,11.16-7.86c4-1.81,9.25-3.09,12.86.28a1.25,1.25,0,0,0,2-1.52c-2.75-5.8-10.21-4.05-14.78-1.92a32.55,32.55,0,0,0-12.19,10.26c-.43.58.51,1.28,1,.76Z"/><ellipse class="cls-4" cx="76.77" cy="152.17" rx="9.3" ry="5.96"/><path class="cls-16" d="M146.62,110.68c-1.39-3.56-2.57-7.87-5.65-10.39a8.24,8.24,0,0,0-5.49-2,7.34,7.34,0,0,0-5.18,2.41,1.49,1.49,0,0,0,2.11,2.1,4.29,4.29,0,0,1,3.45-.7l.35.05.65.07c-.24,0,.34.07.33.06l.5.12a8.64,8.64,0,0,1,1.89.74c3,1.66,4.62,4.84,5.86,7.89.29.72,1.47.42,1.18-.32Z"/><path class="cls-3" d="M46.85,169.22C48.78,140.9,70,83.4,69.68,81.47S56.5,74.08,50.39,77.61c0,0-12.74,50-14.4,72.1"/><g class="cls-17"><path class="cls-18" d="M58.44,116.71a331.32,331.32,0,0,0-12.27,50.57.6.6,0,0,0,1.19.2,328.81,328.81,0,0,1,12.18-50.27c.24-.73-.86-1.24-1.1-.5Z"/></g><path class="cls-3" d="M81.84,60.81s2.26-.93,2.26-5.15S75.59,42.77,69.74,43.55a4.88,4.88,0,0,0-2.47,1.17c-1.89-.95-3.73-1.44-5.24-1a6.23,6.23,0,0,0-3.57,2.52,10.2,10.2,0,0,0-1.48.29,8.54,8.54,0,0,0-5.57,4.24,6.45,6.45,0,0,0-2.67,2.32c-4.52,6.8-.37,24.06-.37,33H67.32s9.6-5.55,13.25-7.23,4.59-7,4.59-11S81.84,60.81,81.84,60.81Z"/><path class="cls-19" d="M75.81,21a2.66,2.66,0,0,1-3.93,3.58,9.28,9.28,0,0,0-5.59-3.08c-1.71-.15-3.65.46-5.63,2.5-3.23,3.31-4,7.65-3.37,11.73C58,40.53,60.5,45,63.34,47.26a1.54,1.54,0,0,1-1.84,2.46c-3.51-2.5-6.81-7.67-7.93-13.34a17.55,17.55,0,0,1,3.8-15.44c3.11-3.52,6.38-4.44,9.23-4.33C71.81,16.81,75.81,21,75.81,21Zm0,0"/><path class="cls-19" d="M113.79,65.4A9.32,9.32,0,0,1,117,70.9c.19,1.71-.36,3.67-2.34,5.7A13.49,13.49,0,0,1,103,80.28c-4.82-.59-9.38-3-11.69-5.75a1.54,1.54,0,0,0-2.41,1.91c2.59,3.44,7.84,6.6,13.55,7.58a17.55,17.55,0,0,0,15.32-4.21c3.45-3.21,4.27-6.5,4.09-9.34-.33-5.21-4.63-9.09-4.63-9.09a2.66,2.66,0,1,0-3.47,4Z"/><path class="cls-19" d="M15,90.89h0l2.28-2.33h0c2.43-2.36,9.39,2.47,14.21,2.59,6.68.18,10.36,1.14,22.82-10.93,10.28-9.95,7.33-24.45,7.33-24.45l.08.07C59.15,45,62.62,32.42,71.79,23l5.39-5.54c1.28-1.31,4.85,0,7.94,3.05L117.5,52.06c1.48,1.44,4.7,6.37,3.25,7.86l-5.47,5.61c-9.16,9.35-21.64,13.13-32.46,10.9l.07.08s-14.57-2.57-24.25,8C46.19,98,47.52,101,48.33,107.67c.57,4.75,5.31,11.48,3,14h0l-2,2.07a1.16,1.16,0,0,1-.22.31c-2.15,2.21-11.54-3.43-20.95-12.59S12.8,93.1,15,90.89Z"/><path class="cls-20" d="M87.91,23.24a62.71,62.71,0,0,0-6.3,5.46,77.38,77.38,0,0,0-7.52,8.6,29.44,29.44,0,0,0-4.7,10c-2.52,9.14-2.33,19-7,26.26A70,70,0,0,1,57.89,80a66.87,66.87,0,0,1-8,8.59c-3.87,3.46-7.82,6-11.33,7-6.45,1.87-10.45.59-14.1.86a7.24,7.24,0,0,0-1.88.39,25,25,0,0,1-2.2-3.35,10.89,10.89,0,0,1,4-.66c3.53,0,7.27,1.62,13.6.32,3.3-.7,7.09-2.81,10.82-5.83a53.26,53.26,0,0,0,6.84-6.64,60.14,60.14,0,0,0,5.65-7.72c5-8.33,3.63-19.81,7-29.95a29.78,29.78,0,0,1,3.5-7.29,80.86,80.86,0,0,1,7.33-9.36,69,69,0,0,1,6-5.84l.07.07Zm27,26.26,2.62,2.56.24.24a69,69,0,0,1-5.68,6.09A80.26,80.26,0,0,1,102.89,66a30,30,0,0,1-7.19,3.69c-10,3.64-21.56,2.62-29.76,7.79a60.28,60.28,0,0,0-7.56,5.85,54,54,0,0,0-6.47,7C49,94.12,47,98,46.37,101.28c-1.13,6.37.55,10.07.68,13.59a10.85,10.85,0,0,1-.54,3.94,15.15,15.15,0,0,1-3.41-2.09,7.14,7.14,0,0,0,.33-1.87c.18-3.65-1.21-7.62.48-14.11.89-3.53,3.3-7.55,6.65-11.51A67.39,67.39,0,0,1,58.94,81a70.26,70.26,0,0,1,6.26-4.68c7.12-4.85,17-4.92,26.07-7.68a29.32,29.32,0,0,0,9.91-5,75.67,75.67,0,0,0,8.4-7.74A63,63,0,0,0,114.88,49.5Z"/><path class="cls-21" d="M50,120.51h0c-4.16-1.12-11.29-6.19-18.17-12.89-6.07-5.91-11-12.21-12.85-16.43a.18.18,0,0,1,.1-.24.18.18,0,0,1,.24.09c1.84,4.18,6.73,10.43,12.76,16.32C39,114,46,119.05,50.13,120.16a.18.18,0,0,1,.13.22A.17.17,0,0,1,50,120.51Z"/><path class="cls-22" d="M93.06,44.65a.41.41,0,0,1,.47.07.39.39,0,0,1,.08.47c-.87,1.77-2.51,5.11-3,6.07a.42.42,0,0,0,.08.47l4.85,4.72a.41.41,0,0,1,.08.47.43.43,0,0,1-.42.22l-6.7-1a.4.4,0,0,0-.42.22l-3,6.07a.43.43,0,0,1-.42.22.41.41,0,0,1-.35-.33c-.33-2-1-5.61-1.14-6.67a.4.4,0,0,0-.34-.33l-6.7-1a.41.41,0,0,1-.34-.34.4.4,0,0,1,.21-.42l6-3.15a.42.42,0,0,0,.21-.43c-.18-1.06-.81-4.72-1.15-6.67a.4.4,0,0,1,.21-.42.41.41,0,0,1,.48.06l4.84,4.72a.4.4,0,0,0,.47.07Z"/><ellipse class="cls-21" cx="99.05" cy="38.61" rx="7.15" ry="30.41" transform="translate(2.28 82.62) rotate(-45.75)"/><ellipse class="cls-23" cx="98.97" cy="38.7" rx="5.74" ry="27.77" transform="translate(2.19 82.59) rotate(-45.75)"/><path class="cls-24" d="M67.93,36.08A1.44,1.44,0,0,1,67,34,39.15,39.15,0,0,1,74.6,23.87a1.44,1.44,0,1,1,2,2.13,36.85,36.85,0,0,0-7,9.33A1.44,1.44,0,0,1,67.93,36.08Z"/><path class="cls-24" d="M65.77,42a1.44,1.44,0,0,1-1-1.71,23.63,23.63,0,0,1,.72-2.57,1.45,1.45,0,1,1,2.74.94,20.27,20.27,0,0,0-.64,2.26A1.45,1.45,0,0,1,65.83,42Z"/><path class="cls-25" d="M85.31,48.21a.41.41,0,0,1-.19-.11l-1.77-1.69a.44.44,0,0,1,.6-.63l1.77,1.7a.43.43,0,0,1,0,.61A.42.42,0,0,1,85.31,48.21Z"/><path class="cls-25" d="M87.7,48.84a.42.42,0,0,1-.27-.22.44.44,0,0,1,.18-.59l3.61-1.85a.43.43,0,0,1,.58.19.42.42,0,0,1-.19.58L88,48.81A.42.42,0,0,1,87.7,48.84Z"/><path class="cls-24" d="M57.75,23a.46.46,0,0,1-.16-.07.44.44,0,0,1-.08-.61s.33-.42.88-1A.43.43,0,1,1,59,22a8.61,8.61,0,0,0-.81.9A.44.44,0,0,1,57.75,23Z"/><path class="cls-24" d="M60,20.83a.42.42,0,0,1-.23-.15.44.44,0,0,1,.08-.61,11.26,11.26,0,0,1,4-2.09,10.46,10.46,0,0,1,8.14,1.24.44.44,0,0,1,.14.6.42.42,0,0,1-.59.14A9.62,9.62,0,0,0,64,18.82a10.36,10.36,0,0,0-3.65,1.93A.44.44,0,0,1,60,20.83Z"/><g class="cls-17"><path class="cls-18" d="M39.5,126.37q-.69,5.87-1.44,11.72c-.24,1.95-.43,3.91-.78,5.85s-.76,3.87-1.25,5.77h-.09a46.44,46.44,0,0,1,.4-5.91c.22-2,.62-3.89,1-5.82q1-5.82,2.11-11.62Z"/></g></g></g></svg>