<svg id="Layer_1" data-name="Layer 1" xmlns="http://www.w3.org/2000/svg" xmlns:xlink="http://www.w3.org/1999/xlink" viewBox="0 0 236.94 166.34"><defs><style>.cls-1,.cls-19{fill:none;}.cls-2{clip-path:url(#clip-path);}.cls-3{fill:#93664d;}.cls-4{fill:#dea406;}.cls-5{fill:#271b2d;}.cls-6{fill:#423a48;}.cls-7{fill:#52bab1;}.cls-8{fill:#fdd23d;}.cls-9{fill:#fbc50b;}.cls-10{fill:#ecae0b;}.cls-11{clip-path:url(#clip-path-2);}.cls-12{clip-path:url(#clip-path-3);}.cls-13{fill:#fcec8a;}.cls-14{fill:#b21827;}.cls-15{fill:#76132e;}.cls-16{clip-path:url(#clip-path-4);}.cls-17{fill:#ef7e82;}.cls-18{fill:#791520;}.cls-19{stroke:#1c0c07;stroke-miterlimit:10;stroke-width:8px;}</style><clipPath id="clip-path"><rect id="SVGID" class="cls-1" x="176.81" y="-298.99" width="50.25" height="212.56" transform="translate(-8.98 -9.88) rotate(2.74)"/></clipPath><clipPath id="clip-path-2"><path id="SVGID-2" data-name="SVGID" class="cls-1" d="M60.48,99.79c-3.24-.6-14.15,3.75-14.15,3.75s-17.63,4.71-15.66,12.91c1.06,4.44,2.9,3.77,5.88,6.09,0,1.15-1.21,4.86,0,7.29s4.14,4.71,7,6.28c.26,2-.1,4.11,1.37,6,5.47,7.23,13.11,4.61,27.57-6.6,4.68-3.63,3.15-11.67.07-11.94a10.69,10.69,0,0,0-4.55,1c1.68-1.18,3.2-2.91,2.77-5.16-.89-4.62-3.45-8.48-6.14-8.87a5.53,5.53,0,0,0-1.53.07c1.07-.6,1.79-1.23,1.79-1.87C64.93,106.27,63.71,100.39,60.48,99.79Z"/></clipPath><clipPath id="clip-path-3"><path id="SVGID-3" data-name="SVGID" class="cls-1" d="M176.61,114.77c1.36-3,11.19-9.44,11.19-9.44s14-11.73,19.56-5.42c3,3.42,1.42,4.54,1.61,8.32,1,.62,4.67,1.79,6,4.19s1.49,6.09,1.13,9.34c1.52,1.39,3.41,2.27,4.16,4.59,2.78,8.64-3.75,13.39-21.22,18.8-5.66,1.75-11.37-4.12-9.82-6.79a10.54,10.54,0,0,1,3.47-3.13c-1.93.69-4.22,1-5.82-.7-3.27-3.38-5-7.68-3.74-10.11a5.24,5.24,0,0,1,.94-1.21c-1.11.53-2,.75-2.56.39C179.36,122.13,175.24,117.76,176.61,114.77Z"/></clipPath><clipPath id="clip-path-4"><path id="SVGID-4" data-name="SVGID" class="cls-1" d="M145.78,95.65a12.65,12.65,0,0,0-7.7-.17c-4.12,1.09-8.19,3.07-12.59,3.32l-.54,0H123.7l-.53,0c-4.4-.25-8.47-2.23-12.59-3.32a12.68,12.68,0,0,0-7.71.17,6.35,6.35,0,0,0-4,6.58c.61,10.6,12.47,20,25.5,19.82,13,.17,24.89-9.22,25.5-19.82A6.34,6.34,0,0,0,145.78,95.65Z"/></clipPath></defs><g class="cls-2"><polygon class="cls-3" points="186.73 51.45 195.92 51.89 211.21 -205.69 197.21 -206.36 186.73 51.45"/></g><path class="cls-4" d="M62.11,98.86c-1.57-.44-3.15.53-4.49,1.45l-2,13.29A26.84,26.84,0,0,0,60,122.7a7.11,7.11,0,0,0,2,2,6.27,6.27,0,0,0,3.94.63,12.61,12.61,0,0,0,8.8-5.3,7.91,7.91,0,0,0,1.48-3.88,4.58,4.58,0,0,0-1.47-3.78,14.4,14.4,0,0,0-2.16-1.24c-3.91-2.18-5.35-7-8.14-10.48A4.82,4.82,0,0,0,62.11,98.86Z"/><path class="cls-5" d="M43.64,63.29A17.72,17.72,0,0,1,13.25,81.51c-5-8.39-7.63-20.28,4-27.08C28.42,47.92,38.61,54.9,43.64,63.29Z"/><path class="cls-6" d="M83.11,148.51s-.76,3.14-5.24,5.83c-4.25,2.54-7.56,1.85-7.56,1.85L26.48,90.34,45.7,78.82Z"/><path class="cls-7" d="M22.75,89.18s10.38-1.74,23.13-13.75l-.26,3.37s-5.44,7.08-19.21,11.54Z"/><path class="cls-6" d="M44.62,64.12A81.42,81.42,0,0,1,30,74.94c-9.85,5.9-16.49,7.83-16.49,7.83l-1.32-2.2A88.06,88.06,0,0,0,28.73,72.7c10-6,14.57-10.78,14.57-10.78Z"/><path class="cls-5" d="M50,107.66l.26-.15a2.26,2.26,0,0,1,3,.82l6.64,11.15a2.26,2.26,0,0,1-1,3.21h0a2.27,2.27,0,0,1-2.88-.85l-6.9-11A2.26,2.26,0,0,1,50,107.66Z"/><polygon class="cls-8" points="58.1 117.61 55.14 119.27 56.53 121.38 59.39 119.82 58.1 117.61"/><circle class="cls-9" cx="126.32" cy="77.37" r="67.62" transform="translate(-17.71 111.98) rotate(-45)"/><path class="cls-10" d="M127,127.27A67.6,67.6,0,0,1,59.19,69.4a68.36,68.36,0,0,0-.48,8.86,67.62,67.62,0,0,0,135.22-1.78,69.8,69.8,0,0,0-.71-8.85A67.62,67.62,0,0,1,127,127.27Z"/><g class="cls-11"><path class="cls-9" d="M60.48,99.79c-3.24-.6-14.15,3.75-14.15,3.75s-17.63,4.71-15.66,12.91c1.06,4.44,2.9,3.77,5.88,6.09,0,1.15-1.21,4.86,0,7.29s4.14,4.71,7,6.28c.26,2-.1,4.11,1.37,6,5.47,7.23,13.11,4.61,27.57-6.6,4.68-3.63,3.15-11.67.07-11.94a10.69,10.69,0,0,0-4.55,1c1.68-1.18,3.2-2.91,2.77-5.16-.89-4.62-3.45-8.48-6.14-8.87a5.53,5.53,0,0,0-1.53.07c1.07-.6,1.79-1.23,1.79-1.87C64.93,106.27,63.71,100.39,60.48,99.79Z"/><path class="cls-10" d="M57.23,131.37a47.49,47.49,0,0,1,19.35-8.14c1.08-.21.63-1.82-.44-1.64a42.85,42.85,0,0,0-19.41,9.13c-.37.29.12.92.5.65Z"/><path class="cls-10" d="M48.21,118.66a47.48,47.48,0,0,1,19.35-8.13c1.08-.21.62-1.83-.44-1.64A43,43,0,0,0,47.7,118c-.36.3.13.93.51.65Z"/></g><path class="cls-4" d="M174.91,115.57c.54-1.54,2.24-2.27,3.76-2.84l12,6a26.49,26.49,0,0,1,4.95,8.78,7.23,7.23,0,0,1,.49,2.75,6.26,6.26,0,0,1-1.75,3.58A12.54,12.54,0,0,1,185,138a7.84,7.84,0,0,1-4-1,4.56,4.56,0,0,1-2.24-3.37,13.86,13.86,0,0,1,.22-2.48c.46-4.45-2.65-8.39-3.91-12.68A4.71,4.71,0,0,1,174.91,115.57Z"/><g class="cls-12"><path class="cls-9" d="M176.61,114.77c1.36-3,11.19-9.44,11.19-9.44s14-11.73,19.56-5.42c3,3.42,1.42,4.54,1.61,8.32,1,.62,4.67,1.79,6,4.19s1.49,6.09,1.13,9.34c1.52,1.39,3.41,2.27,4.16,4.59,2.78,8.64-3.75,13.39-21.22,18.8-5.66,1.75-11.37-4.12-9.82-6.79a10.54,10.54,0,0,1,3.47-3.13c-1.93.69-4.22,1-5.82-.7-3.27-3.38-5-7.68-3.74-10.11a5.24,5.24,0,0,1,.94-1.21c-1.11.53-2,.75-2.56.39C179.36,122.13,175.24,117.76,176.61,114.77Z"/><path class="cls-10" d="M204.05,129.45a43,43,0,0,0-18.64,10.71.85.85,0,0,0,1.21,1.19,47.3,47.3,0,0,1,17.64-11.1c.5-.17.31-.95-.21-.8Z"/><path class="cls-10" d="M198.82,114.77a42.94,42.94,0,0,0-18.63,10.71.85.85,0,0,0,1.21,1.2A47.12,47.12,0,0,1,199,115.57c.5-.17.3-.95-.22-.8Z"/></g><path class="cls-9" d="M204.88,95.13c2.69,3.7,5.38,11.1-1.58,15.47s-13.65-2.77-15.76-6.66c-2.82-5.18-1.34-10.76,2.73-13.07S200.23,88.72,204.88,95.13Z"/><path class="cls-10" d="M207.45,100.48a8.26,8.26,0,0,1,.64,3.92,7.07,7.07,0,0,1-1.46,3.78,11,11,0,0,1-3.1,2.5,12.11,12.11,0,0,1-3.65,1.52,7.77,7.77,0,0,1-4-.17,12,12,0,0,1-3.6-1.82,14.77,14.77,0,0,1-4.76-6.24l.1-.06a26.76,26.76,0,0,0,5.4,5.29A15.07,15.07,0,0,0,196.2,111a9.31,9.31,0,0,0,3.59.58,6.85,6.85,0,0,0,3.53-1.2,9,9,0,0,0,2.51-2.74,9.6,9.6,0,0,0,1.35-3.35,14.63,14.63,0,0,0,.16-3.76Z"/><path class="cls-13" d="M143.77,98.05a10.45,10.45,0,0,0-7-.17c-3.74,1.09-7.42,3.07-11.41,3.32l-.48,0h-1.14l-.48,0c-4-.25-7.67-2.23-11.41-3.32a10.45,10.45,0,0,0-7,.17c-2.77,1.11-3.8,4-3.66,6.58.55,10.6,11.29,20,23.1,19.82,11.8.17,22.55-9.22,23.1-19.82C147.56,102.09,146.54,99.16,143.77,98.05Z"/><path class="cls-14" d="M145.78,95.65a12.65,12.65,0,0,0-7.7-.17c-4.12,1.09-8.19,3.07-12.59,3.32l-.54,0H123.7l-.53,0c-4.4-.25-8.47-2.23-12.59-3.32a12.68,12.68,0,0,0-7.71.17,6.35,6.35,0,0,0-4,6.58c.61,10.6,12.47,20,25.5,19.82,13,.17,24.89-9.22,25.5-19.82A6.34,6.34,0,0,0,145.78,95.65Z"/><path class="cls-15" d="M130.21,102.79c-2.42,0-4.46,2.45-5.08,5.79-.27,0-.53,0-.8,0s-.54,0-.8,0c-.62-3.34-2.66-5.79-5.08-5.79-2.92,0-5.28,3.55-5.28,7.92s2.36,7.92,5.28,7.92a3.67,3.67,0,0,0,1.59-.37,11.25,11.25,0,0,0,8.58,0,3.64,3.64,0,0,0,1.59.37c2.91,0,5.28-3.54,5.28-7.92S133.12,102.79,130.21,102.79Z"/><path class="cls-14" d="M126.61,110.41a2.28,2.28,0,1,1-2.28-2.28A2.28,2.28,0,0,1,126.61,110.41Z"/><g class="cls-16"><path class="cls-17" d="M146.24,125.43c0,6.09-9.81,11-21.91,11s-21.92-4.95-21.92-11,9.82-11,21.92-11S146.24,119.33,146.24,125.43Z"/></g><path class="cls-13" d="M75.8,76.38a39.26,39.26,0,0,1,4.51-13.87c1.69-3.28,5.41-9,9.82-7.91,3.92,1,5.05,6.29,5.5,9.71.34,2.6-.32,8.41,1.45,10.39,3.66,4.11,6.9.59,6.69-4.44a44.13,44.13,0,0,0-1.34-9.42c-1.6-6.06-5.24-11.71-11.93-12.39-6.38-.65-11,5.84-13.54,10.79-2.68,5.31-4.91,11.16-5.35,17.14C71.41,79.09,75.55,79,75.8,76.38Z"/><path class="cls-13" d="M172.86,76.38a39.47,39.47,0,0,0-4.51-13.87c-1.69-3.28-5.41-9-9.82-7.91-3.92,1-5.05,6.29-5.5,9.71-.35,2.6.32,8.41-1.45,10.39-3.66,4.11-6.91.59-6.69-4.44a44.13,44.13,0,0,1,1.34-9.42c1.6-6.06,5.24-11.71,11.93-12.39,6.38-.65,11.05,5.84,13.54,10.79,2.68,5.31,4.91,11.16,5.35,17.14C177.25,79.09,173.1,79,172.86,76.38Z"/><path class="cls-18" d="M75.8,74.94a39.26,39.26,0,0,1,4.51-13.87c1.69-3.28,5.41-9,9.82-7.91,3.92,1,5.05,6.29,5.5,9.71.34,2.6-.32,8.41,1.45,10.39,3.66,4.11,6.9.59,6.69-4.44a44.13,44.13,0,0,0-1.34-9.42C100.83,53.34,97.19,47.69,90.5,47c-6.38-.65-11,5.84-13.54,10.79C74.28,63.11,72.05,69,71.61,74.94,71.41,77.65,75.55,77.6,75.8,74.94Z"/><path class="cls-18" d="M172.86,74.94a39.47,39.47,0,0,0-4.51-13.87c-1.69-3.28-5.41-9-9.82-7.91-3.92,1-5.05,6.29-5.5,9.71-.35,2.6.32,8.41-1.45,10.39-3.66,4.11-6.91.59-6.69-4.44a44.13,44.13,0,0,1,1.34-9.42c1.6-6.06,5.24-11.71,11.93-12.39,6.38-.65,11.05,5.84,13.54,10.79,2.68,5.31,4.91,11.16,5.35,17.14C177.25,77.65,173.1,77.6,172.86,74.94Z"/><circle class="cls-19" cx="80.62" cy="62.6" r="31"/><circle class="cls-19" cx="168.04" cy="62.6" r="31"/><path class="cls-19" d="M111.37,65.32c0-4.51,5.8-8.16,13-8.16s13,3.65,13,8.16"/></svg>