<svg width="200" height="200" viewBox="0 0 200 200" fill="none" xmlns="http://www.w3.org/2000/svg">
    <g clip-path="url(#clip0_538_222)">
        <g clip-path="url(#clip1_538_222)">
            <path
                d="M152.632 47.3685L105.264 42.1055L47.3695 47.3685L42.1055 100L47.3685 152.632L100 159.211L152.632 152.632L157.895 98.6855L152.632 47.3685Z"
                fill="white" />
            <path
                d="M68.9614 129.025C65.0274 126.367 62.3034 122.486 60.8164 117.354L69.9484 113.591C70.7774 116.749 72.2244 119.196 74.2904 120.933C76.3434 122.67 78.8434 123.525 81.7644 123.525C84.7514 123.525 87.3174 122.617 89.4614 120.801C91.6054 118.985 92.6854 116.669 92.6854 113.867C92.6854 110.999 91.5534 108.656 89.2904 106.841C87.0274 105.026 84.1854 104.117 80.7904 104.117H75.5144V95.0783H80.2504C83.1714 95.0783 85.6324 94.2893 87.6324 92.7103C89.6324 91.1313 90.6324 88.9733 90.6324 86.2233C90.6324 83.7763 89.7374 81.8283 87.9484 80.3683C86.1594 78.9083 83.8954 78.1713 81.1454 78.1713C78.4614 78.1713 76.3294 78.8823 74.7504 80.3163C73.1714 81.7503 72.0264 83.5133 71.3034 85.5923L62.2644 81.8293C63.4614 78.4343 65.6594 75.4343 68.8824 72.8423C72.1064 70.2503 76.2244 68.9473 81.2244 68.9473C84.9214 68.9473 88.2504 69.6583 91.1984 71.0923C94.1454 72.5263 96.4614 74.5133 98.1324 77.0393C99.8034 79.5783 100.632 82.4213 100.632 85.5783C100.632 88.8023 99.8564 91.5253 98.3034 93.7623C96.7504 95.9993 94.8424 97.7093 92.5794 98.9073V99.4463C95.5664 100.696 98.0004 102.604 99.9214 105.17C101.829 107.736 102.789 110.802 102.789 114.381C102.789 117.96 101.881 121.157 100.065 123.96C98.2494 126.763 95.7364 128.973 92.5524 130.578C89.3554 132.183 85.7634 132.999 81.7764 132.999C77.1584 133.012 72.8954 131.683 68.9614 129.025Z"
                fill="#1A73E8" />
            <path
                d="M125.001 83.7118L115.027 90.9618L110.014 83.3568L128.001 70.3828H134.896V131.58H125.001V83.7118Z"
                fill="#1A73E8" />
            <path
                d="M152.631 199.999L199.999 152.631L176.315 142.105L152.631 152.631L142.105 176.315L152.631 199.999Z"
                fill="#EA4335" />
            <path
                d="M36.8418 176.317L47.3678 200.001H152.631V152.633H47.3678L36.8418 176.317Z"
                fill="#34A853" />
            <path
                d="M15.789 0C7.066 0 0 7.066 0 15.789V152.631L23.684 163.157L47.368 152.631V47.368H152.631L163.157 23.684L152.632 0H15.789Z"
                fill="#4285F4" />
            <path
                d="M0 152.633V184.212C0 192.936 7.066 200.001 15.789 200.001H47.368V152.633H0Z"
                fill="#188038" />
            <path
                d="M152.633 47.3678V152.631H200.001V47.3678L176.317 36.8418L152.633 47.3678Z"
                fill="#FBBC04" />
            <path
                d="M200.001 47.368V15.789C200.001 7.065 192.935 0 184.212 0H152.633V47.368H200.001Z"
                fill="#1967D2" />
        </g>
    </g>
    <defs>
        <clipPath id="clip0_538_222">
            <rect width="200" height="200" fill="white" />
        </clipPath>
        <clipPath id="clip1_538_222">
            <rect width="200" height="200" fill="white" />
        </clipPath>
    </defs>
</svg>