<svg width="200" height="200" viewBox="0 0 200 200" fill="none" xmlns="http://www.w3.org/2000/svg">
    <g clip-path="url(#clip0_538_245)">
        <path
            d="M82.11 4.66406L81.0886 5.28183C79.4641 6.26456 77.9336 7.36334 76.5055 8.56393L79.4514 6.49179H104.455L109 40.9101L86.2727 63.6373L63.5455 79.4346V97.6505C63.5455 110.373 70.195 122.171 81.0791 128.759L105.005 143.241L54.4545 172.729H44.705L26.5335 161.73C15.6494 155.142 9 143.344 9 130.621V69.3673C9 56.6405 15.6536 44.8396 26.5433 38.2528L81.0886 5.25947C81.4268 5.05502 81.7673 4.85656 82.11 4.66406Z"
            fill="url(#paint0_radial_538_245)" />
        <path
            d="M82.11 4.66406L81.0886 5.28183C79.4641 6.26456 77.9336 7.36334 76.5055 8.56393L79.4514 6.49179H104.455L109 40.9101L86.2727 63.6373L63.5455 79.4346V97.6505C63.5455 110.373 70.195 122.171 81.0791 128.759L105.005 143.241L54.4545 172.729H44.705L26.5335 161.73C15.6494 155.142 9 143.344 9 130.621V69.3673C9 56.6405 15.6536 44.8396 26.5433 38.2528L81.0886 5.25947C81.4268 5.05502 81.7673 4.85656 82.11 4.66406Z"
            fill="url(#paint1_linear_538_245)" />
        <path
            d="M136.272 77.2734V97.6384C136.272 110.361 129.622 122.159 118.738 128.747L64.1928 161.763C53.0346 168.518 39.1514 168.761 27.7969 162.495L81.0778 194.746C92.6532 201.753 107.162 201.753 118.738 194.746L173.284 161.729C184.168 155.141 190.817 143.343 190.817 130.621V115.91L186.271 109.092L136.272 77.2734Z"
            fill="url(#paint2_radial_538_245)" />
        <path
            d="M136.272 77.2734V97.6384C136.272 110.361 129.622 122.159 118.738 128.747L64.1928 161.763C53.0346 168.518 39.1514 168.761 27.7969 162.495L81.0778 194.746C92.6532 201.753 107.162 201.753 118.738 194.746L173.284 161.729C184.168 155.141 190.817 143.343 190.817 130.621V115.91L186.271 109.092L136.272 77.2734Z"
            fill="url(#paint3_linear_538_245)" />
        <path
            d="M173.274 38.2523L118.729 5.25898C107.517 -1.52316 93.5545 -1.73325 82.1717 4.62866L81.0881 5.28412C70.1986 11.871 63.5449 23.6717 63.5449 36.3986V79.5072L81.0881 68.8954C92.659 61.8968 107.158 61.8968 118.729 68.8954L173.274 101.889C183.824 108.27 190.398 119.544 190.798 131.812C190.811 131.416 190.818 131.019 190.818 130.621V69.3668C190.818 56.64 184.164 44.8391 173.274 38.2523Z"
            fill="url(#paint4_radial_538_245)" />
        <path
            d="M173.274 38.2523L118.729 5.25898C107.517 -1.52316 93.5545 -1.73325 82.1717 4.62866L81.0881 5.28412C70.1986 11.871 63.5449 23.6717 63.5449 36.3986V79.5072L81.0881 68.8954C92.659 61.8968 107.158 61.8968 118.729 68.8954L173.274 101.889C183.824 108.27 190.398 119.544 190.798 131.812C190.811 131.416 190.818 131.019 190.818 130.621V69.3668C190.818 56.64 184.164 44.8391 173.274 38.2523Z"
            fill="url(#paint5_linear_538_245)" />
    </g>
    <defs>
        <radialGradient id="paint0_radial_538_245" cx="0" cy="0" r="1"
            gradientUnits="userSpaceOnUse"
            gradientTransform="translate(69.9936 39.266) rotate(110.528) scale(151.662 264.53)">
            <stop offset="0.06441" stop-color="#AE7FE2" />
            <stop offset="1" stop-color="#0078D4" />
        </radialGradient>
        <linearGradient id="paint1_linear_538_245" x1="70.4177" y1="163.04" x2="48.7786"
            y2="125.613" gradientUnits="userSpaceOnUse">
            <stop stop-color="#114A8B" />
            <stop offset="1" stop-color="#0078D4" stop-opacity="0" />
        </linearGradient>
        <radialGradient id="paint2_radial_538_245" cx="0" cy="0" r="1"
            gradientUnits="userSpaceOnUse"
            gradientTransform="translate(38.226 156.142) rotate(-8.36717) scale(141.138 93.2309)">
            <stop offset="0.133928" stop-color="#D59DFF" />
            <stop offset="1" stop-color="#5E438F" />
        </radialGradient>
        <linearGradient id="paint3_linear_538_245" x1="174.256" y1="106.259"
            x2="151.068" y2="139.508" gradientUnits="userSpaceOnUse">
            <stop stop-color="#493474" />
            <stop offset="1" stop-color="#8C66BA" stop-opacity="0" />
        </linearGradient>
        <radialGradient id="paint4_radial_538_245" cx="0" cy="0" r="1"
            gradientUnits="userSpaceOnUse"
            gradientTransform="translate(177.432 111.383) rotate(-165.772) scale(113.285 190.705)">
            <stop offset="0.0584996" stop-color="#50E6FF" />
            <stop offset="1" stop-color="#436DCD" />
        </radialGradient>
        <linearGradient id="paint5_linear_538_245" x1="67.9804" y1="4.80339"
            x2="102.121" y2="4.80339" gradientUnits="userSpaceOnUse">
            <stop stop-color="#2D3F80" />
            <stop offset="1" stop-color="#436DCD" stop-opacity="0" />
        </linearGradient>
        <clipPath id="clip0_538_245">
            <rect width="181.818" height="200" fill="white" transform="translate(9)" />
        </clipPath>
    </defs>
</svg>