<svg width="200" height="200" viewBox="0 0 200 200" fill="none" xmlns="http://www.w3.org/2000/svg">
    <g clip-path="url(#clip0_538_199)">
        <path
            d="M199.999 104.673C200.01 103.11 199.202 101.654 197.869 100.836H197.845L197.762 100.79L128.459 59.7665C128.16 59.5644 127.849 59.3796 127.529 59.2131C124.853 57.8326 121.675 57.8326 118.999 59.2131C118.678 59.3797 118.368 59.5644 118.068 59.7665L48.7664 100.79L48.6827 100.836C46.5646 102.153 45.9153 104.938 47.2324 107.056C47.6205 107.681 48.1551 108.2 48.7897 108.571L118.092 149.594C118.392 149.795 118.703 149.98 119.022 150.148C121.698 151.528 124.877 151.528 127.552 150.148C127.872 149.98 128.182 149.795 128.483 149.594L197.785 108.571C199.169 107.764 200.015 106.276 199.999 104.673Z"
            fill="#0A2767" />
        <path
            d="M56.8473 77.2837H102.326V118.972H56.8473V77.2837ZM190.698 34.907V15.8372C190.808 11.0693 187.034 7.11425 182.266 7H64.2474C59.4795 7.11425 55.7056 11.0693 55.8148 15.8372V34.907L125.582 53.5116L190.698 34.907Z"
            fill="#0364B8" />
        <path d="M55.8145 34.9062H102.326V76.7667H55.8145V34.9062Z" fill="#0078D4" />
        <path
            d="M148.838 34.9062H102.326V76.7667L148.838 118.627H190.698V76.7667L148.838 34.9062Z"
            fill="#28A8EA" />
        <path d="M102.326 76.7676H148.838V118.628H102.326V76.7676Z" fill="#0078D4" />
        <path d="M102.326 118.627H148.838V160.487H102.326V118.627Z" fill="#0364B8" />
        <path d="M56.8457 118.973H102.325V156.87H56.8457V118.973Z" fill="#14447D" />
        <path d="M148.838 118.627H190.698V160.487H148.838V118.627Z" fill="#0078D4" />
        <path
            d="M197.87 108.316L197.781 108.362L128.479 147.339C128.177 147.525 127.87 147.702 127.549 147.86C126.372 148.42 125.093 148.737 123.791 148.79L120.005 146.576C119.685 146.416 119.374 146.237 119.074 146.041L48.8419 105.958H48.8094L46.5117 104.674V183.576C46.5475 188.84 50.8428 193.079 56.107 193.046H190.553C190.632 193.046 190.702 193.009 190.786 193.009C191.898 192.938 192.994 192.709 194.042 192.33C194.494 192.138 194.931 191.911 195.349 191.651C195.66 191.474 196.195 191.088 196.195 191.088C198.578 189.325 199.988 186.54 200 183.576V104.674C199.998 106.183 199.184 107.575 197.87 108.316Z"
            fill="url(#paint0_linear_538_199)" />
        <path opacity="0.5"
            d="M196.28 104.363V109.2L123.815 159.093L48.7915 105.991C48.7915 105.965 48.7707 105.944 48.745 105.944L41.8613 101.804V98.3161L44.6986 98.2695L50.6985 101.711L50.838 101.758L51.3496 102.084C51.3496 102.084 121.861 142.316 122.047 142.409L124.745 143.99C124.977 143.897 125.21 143.804 125.489 143.711C125.629 143.618 195.489 104.316 195.489 104.316L196.28 104.363Z"
            fill="#0A2767" />
        <path
            d="M197.87 108.316L197.781 108.367L128.479 147.344C128.177 147.53 127.87 147.706 127.549 147.864C124.857 149.179 121.71 149.179 119.018 147.864C118.7 147.707 118.389 147.533 118.088 147.344L48.7861 108.367L48.7024 108.316C47.3644 107.59 46.5256 106.196 46.5117 104.674V183.576C46.545 188.839 50.8388 193.079 56.102 193.046C56.102 193.046 56.1022 193.046 56.1024 193.046H190.409C195.673 193.079 199.966 188.84 200 183.577C200 183.577 200 183.576 200 183.576V104.674C199.998 106.183 199.184 107.575 197.87 108.316Z"
            fill="#1490DF" />
        <path opacity="0.1"
            d="M129.488 146.768L128.451 147.349C128.151 147.54 127.84 147.716 127.521 147.875C126.378 148.435 125.136 148.764 123.865 148.842L150.233 180.023L196.228 191.107C197.488 190.155 198.491 188.903 199.144 187.465L129.488 146.768Z"
            fill="black" />
        <path opacity="0.05"
            d="M134.186 144.125L128.451 147.348C128.151 147.54 127.84 147.715 127.521 147.874C126.378 148.435 125.136 148.764 123.865 148.841L136.219 182.902L196.242 191.092C198.607 189.317 199.999 186.533 200 183.576V182.557L134.186 144.125Z"
            fill="black" />
        <path
            d="M56.2326 193.046H190.395C192.46 193.056 194.473 192.404 196.139 191.185L120 146.585C119.68 146.425 119.369 146.246 119.07 146.051L48.8372 105.967H48.8047L46.5117 104.674V183.306C46.5065 188.68 50.8587 193.041 56.2326 193.046V193.046Z"
            fill="#28A8EA" />
        <path opacity="0.1"
            d="M111.628 52.7345V151.944C111.62 155.422 109.505 158.549 106.279 159.851C105.28 160.28 104.204 160.502 103.116 160.502H46.5117V48.8601H55.8141V44.209H103.116C107.815 44.2268 111.618 48.0357 111.628 52.7345Z"
            fill="black" />
        <path opacity="0.2"
            d="M106.977 57.3853V156.594C106.989 157.718 106.75 158.83 106.279 159.85C104.987 163.034 101.901 165.123 98.4652 165.139H46.5117V48.8598H98.4652C99.8148 48.8462 101.145 49.1829 102.326 49.8366C105.177 51.273 106.976 54.1928 106.977 57.3853Z"
            fill="black" />
        <path opacity="0.2"
            d="M106.977 57.3853V147.292C106.954 151.989 103.162 155.796 98.4653 155.836H46.5117V48.8598H98.4652C99.8148 48.8462 101.145 49.1829 102.326 49.8366C105.177 51.273 106.976 54.1928 106.977 57.3853Z"
            fill="black" />
        <path opacity="0.2"
            d="M102.326 57.3869V147.294C102.321 151.998 98.5179 155.815 93.8141 155.838H46.5117V48.8613H93.814C98.5174 48.8638 102.328 52.6788 102.326 57.3823C102.326 57.3838 102.326 57.3853 102.326 57.3869Z"
            fill="black" />
        <path
            d="M8.52555 48.8613H93.7999C98.5085 48.8613 102.325 52.6784 102.325 57.3869V142.661C102.325 147.37 98.5085 151.187 93.7999 151.187H8.52555C3.81697 151.187 0 147.37 0 142.661V57.3869C0 52.6784 3.81708 48.8613 8.52555 48.8613Z"
            fill="url(#paint1_linear_538_199)" />
        <path
            d="M26.6465 84.6181C28.7477 80.1412 32.1394 76.3947 36.3861 73.86C41.089 71.1675 46.4436 69.8253 51.8605 69.9809C56.881 69.872 61.835 71.1447 66.1814 73.6599C70.2679 76.097 73.5592 79.6677 75.6558 83.939C77.939 88.6455 79.0769 93.8251 78.9768 99.0553C79.0874 104.521 77.9166 109.937 75.5581 114.869C73.4117 119.293 70.016 122.991 65.7907 125.506C61.2768 128.099 56.1388 129.405 50.9349 129.283C45.8071 129.407 40.7439 128.12 36.2977 125.562C32.1758 123.122 28.8432 119.547 26.6977 115.264C24.4009 110.626 23.2495 105.505 23.3396 100.33C23.2439 94.9102 24.3744 89.5392 26.6465 84.6181ZM37.0279 109.874C38.1482 112.704 40.048 115.159 42.5069 116.953C45.0114 118.703 48.0104 119.606 51.065 119.53C54.3181 119.658 57.5246 118.724 60.1999 116.869C62.6277 115.081 64.4776 112.619 65.5208 109.79C66.687 106.63 67.2625 103.283 67.2185 99.9157C67.2545 96.5159 66.7135 93.1346 65.6185 89.9157C64.6513 87.0096 62.861 84.447 60.465 82.539C57.8567 80.5959 54.6588 79.6104 51.4092 79.7483C48.2884 79.6675 45.2222 80.5777 42.6511 82.3483C40.1506 84.1501 38.2147 86.6264 37.0697 89.4878C34.5297 96.0467 34.5165 103.315 37.0325 109.883L37.0279 109.874Z"
            fill="white" />
        <path d="M148.838 34.9062H190.698V76.7667H148.838V34.9062Z" fill="#50D9FF" />
    </g>
    <defs>
        <linearGradient id="paint0_linear_538_199" x1="123.256" y1="104.674"
            x2="123.256" y2="193.046" gradientUnits="userSpaceOnUse">
            <stop stop-color="#35B8F1" />
            <stop offset="1" stop-color="#28A8EA" />
        </linearGradient>
        <linearGradient id="paint1_linear_538_199" x1="17.776" y1="42.1996" x2="84.5495"
            y2="157.849" gradientUnits="userSpaceOnUse">
            <stop stop-color="#1784D9" />
            <stop offset="0.5" stop-color="#107AD5" />
            <stop offset="1" stop-color="#0A63C9" />
        </linearGradient>
        <clipPath id="clip0_538_199">
            <rect width="200" height="186.047" fill="white"
                transform="translate(0 7)" />
        </clipPath>
    </defs>
    </svg>